<?xml version="1.0" encoding="UTF-8"?>
<!DOCTYPE svg PUBLIC "-//W3C//DTD SVG 1.1//EN" "http://www.w3.org/Graphics/SVG/1.1/DTD/svg11.dtd">
<svg version="1.2" width="273mm" height="205mm" viewBox="1900 0 27300 20500" preserveAspectRatio="xMidYMid" fill-rule="evenodd" stroke-width="28.222" stroke-linejoin="round" xmlns="http://www.w3.org/2000/svg" xmlns:ooo="http://xml.openoffice.org/svg/export" xmlns:xlink="http://www.w3.org/1999/xlink" xmlns:presentation="http://sun.com/xmlns/staroffice/presentation" xmlns:smil="http://www.w3.org/2001/SMIL20/" xmlns:anim="urn:oasis:names:tc:opendocument:xmlns:animation:1.0" xml:space="preserve">
 <defs class="ClipPathGroup">
  <clipPath id="presentation_clip_path" clipPathUnits="userSpaceOnUse">
   <rect x="1900" y="0" width="27300" height="20500"/>
  </clipPath>
 </defs>
 <defs class="TextShapeIndex">
  <g ooo:slide="id1" ooo:id-list="id3 id4 id5 id6 id7 id8 id9 id10 id11 id12 id13 id14 id15 id16 id17 id18 id19 id20 id21 id22 id23 id24 id25 id26 id27 id28 id29 id30 id31 id32 id33"/>
 </defs>
 <defs class="EmbeddedBulletChars">
  <g id="bullet-char-template(57356)" transform="scale(0.00048828125,-0.00048828125)">
   <path d="M 580,1141 L 1163,571 580,0 -4,571 580,1141 Z"/>
  </g>
  <g id="bullet-char-template(57354)" transform="scale(0.00048828125,-0.00048828125)">
   <path d="M 8,1128 L 1137,1128 1137,0 8,0 8,1128 Z"/>
  </g>
  <g id="bullet-char-template(10146)" transform="scale(0.00048828125,-0.00048828125)">
   <path d="M 174,0 L 602,739 174,1481 1456,739 174,0 Z M 1358,739 L 309,1346 659,739 1358,739 Z"/>
  </g>
  <g id="bullet-char-template(10132)" transform="scale(0.00048828125,-0.00048828125)">
   <path d="M 2015,739 L 1276,0 717,0 1260,543 174,543 174,936 1260,936 717,1481 1274,1481 2015,739 Z"/>
  </g>
  <g id="bullet-char-template(10007)" transform="scale(0.00048828125,-0.00048828125)">
   <path d="M 0,-2 C -7,14 -16,27 -25,37 L 356,567 C 262,823 215,952 215,954 215,979 228,992 255,992 264,992 276,990 289,987 310,991 331,999 354,1012 L 381,999 492,748 772,1049 836,1024 860,1049 C 881,1039 901,1025 922,1006 886,937 835,863 770,784 769,783 710,716 594,584 L 774,223 C 774,196 753,168 711,139 L 727,119 C 717,90 699,76 672,76 641,76 570,178 457,381 L 164,-76 C 142,-110 111,-127 72,-127 30,-127 9,-110 8,-76 1,-67 -2,-52 -2,-32 -2,-23 -1,-13 0,-2 Z"/>
  </g>
  <g id="bullet-char-template(10004)" transform="scale(0.00048828125,-0.00048828125)">
   <path d="M 285,-33 C 182,-33 111,30 74,156 52,228 41,333 41,471 41,549 55,616 82,672 116,743 169,778 240,778 293,778 328,747 346,684 L 369,508 C 377,444 397,411 428,410 L 1163,1116 C 1174,1127 1196,1133 1229,1133 1271,1133 1292,1118 1292,1087 L 1292,965 C 1292,929 1282,901 1262,881 L 442,47 C 390,-6 338,-33 285,-33 Z"/>
  </g>
  <g id="bullet-char-template(9679)" transform="scale(0.00048828125,-0.00048828125)">
   <path d="M 813,0 C 632,0 489,54 383,161 276,268 223,411 223,592 223,773 276,916 383,1023 489,1130 632,1184 813,1184 992,1184 1136,1130 1245,1023 1353,916 1407,772 1407,592 1407,412 1353,268 1245,161 1136,54 992,0 813,0 Z"/>
  </g>
  <g id="bullet-char-template(8226)" transform="scale(0.00048828125,-0.00048828125)">
   <path d="M 346,457 C 273,457 209,483 155,535 101,586 74,649 74,723 74,796 101,859 155,911 209,963 273,989 346,989 419,989 480,963 531,910 582,859 608,796 608,723 608,648 583,586 532,535 482,483 420,457 346,457 Z"/>
  </g>
  <g id="bullet-char-template(8211)" transform="scale(0.00048828125,-0.00048828125)">
   <path d="M -4,459 L 1135,459 1135,606 -4,606 -4,459 Z"/>
  </g>
 </defs>
 <defs class="TextEmbeddedBitmaps"/>
 <g class="SlideGroup">
  <g>
   <g id="id1" class="Slide" clip-path="url(#presentation_clip_path)">
    <g class="Page">
     <g class="com.sun.star.drawing.CustomShape">
      <g id="id3">
       <rect class="BoundingBox" stroke="none" fill="none" x="1900" y="0" width="27301" height="20501"/>
       <path fill="rgb(204,204,204)" stroke="none" d="M 15550,20500 L 1900,20500 1900,0 29200,0 29200,20500 15550,20500 Z"/>
      </g>
     </g>
     <g class="Group">
      <g class="com.sun.star.drawing.ClosedBezierShape">
       <g id="id4">
        <rect class="BoundingBox" stroke="none" fill="none" x="13899" y="9266" width="2170" height="2583"/>
        <path fill="rgb(255,255,255)" stroke="none" d="M 14609,9853 C 14846,10099 15084,10345 15323,10591 15314,10248 15306,9906 15299,9563 15536,9464 15773,9365 16008,9266 16027,10053 16048,10841 16067,11628 15893,11700 15717,11774 15541,11848 14994,11282 14447,10716 13900,10150 L 14609,9853 Z"/>
       </g>
      </g>
      <g class="com.sun.star.drawing.ClosedBezierShape">
       <g id="id5">
        <rect class="BoundingBox" stroke="none" fill="none" x="16053" y="8959" width="1540" height="2319"/>
        <path fill="rgb(255,255,255)" stroke="none" d="M 16053,9247 C 16282,9151 16512,9055 16740,8959 17024,9635 17308,10313 17591,10989 17363,11085 17133,11181 16904,11277 L 16053,9247 Z"/>
       </g>
      </g>
      <g class="com.sun.star.drawing.ClosedBezierShape">
       <g id="id6">
        <rect class="BoundingBox" stroke="none" fill="none" x="16953" y="8368" width="2070" height="2534"/>
        <path fill="rgb(255,255,255)" stroke="none" d="M 16953,8870 C 17351,8703 17750,8536 18149,8369 18224,8546 18298,8724 18372,8901 18189,8978 18007,9054 17825,9130 17856,9206 17887,9280 17919,9356 18099,9280 18277,9206 18458,9130 18529,9298 18599,9467 18670,9635 18489,9711 18311,9786 18131,9862 18164,9939 18196,10017 18229,10096 18419,10017 18608,9938 18799,9858 18873,10035 18947,10213 19022,10390 18615,10560 18210,10730 17804,10900 L 16953,8870 Z"/>
       </g>
      </g>
      <g class="com.sun.star.drawing.ClosedBezierShape">
       <g id="id7">
        <rect class="BoundingBox" stroke="none" fill="none" x="18352" y="7559" width="2582" height="2756"/>
        <path fill="rgb(255,255,255)" stroke="none" d="M 18353,8283 C 18530,8209 18708,8135 18885,8060 19181,8242 19478,8425 19774,8607 19665,8347 19555,8085 19446,7825 19657,7737 19870,7648 20081,7559 20364,8235 20648,8913 20932,9589 20755,9664 20575,9739 20396,9814 20101,9630 19808,9449 19513,9268 19622,9527 19731,9786 19840,10047 19627,10136 19416,10225 19204,10313 L 18353,8283 Z"/>
       </g>
      </g>
      <g class="com.sun.star.drawing.ClosedBezierShape">
       <g id="id8">
        <rect class="BoundingBox" stroke="none" fill="none" x="20295" y="6745" width="2580" height="2756"/>
        <path fill="rgb(255,255,255)" stroke="none" d="M 20296,7470 C 20473,7394 20650,7320 20827,7246 21124,7429 21420,7611 21716,7792 21607,7532 21498,7272 21388,7011 21599,6923 21811,6834 22022,6746 22306,7421 22590,8100 22874,8775 22696,8850 22517,8925 22338,9000 22043,8816 21750,8635 21456,8455 21564,8714 21673,8973 21782,9233 21569,9322 21358,9410 21146,9499 L 20296,7470 Z"/>
       </g>
      </g>
      <g class="com.sun.star.drawing.ClosedBezierShape">
       <g id="id9">
        <rect class="BoundingBox" stroke="none" fill="none" x="22840" y="6199" width="2108" height="2558"/>
        <path fill="rgb(255,255,255)" stroke="none" d="M 22840,6403 C 23001,6335 23164,6267 23325,6199 23865,6768 24407,7338 24947,7907 24735,7995 24521,8085 24308,8174 24260,8123 24211,8071 24164,8020 23959,8106 23755,8192 23551,8277 23553,8347 23556,8418 23559,8488 23347,8577 23132,8667 22920,8756 L 22840,6403 Z M 23806,7643 C 23711,7545 23617,7444 23520,7345 23523,7483 23529,7622 23532,7759 L 23806,7643 Z"/>
       </g>
      </g>
     </g>
     <g class="Group">
      <g class="com.sun.star.drawing.ClosedBezierShape">
       <g id="id10">
        <rect class="BoundingBox" stroke="none" fill="none" x="8365" y="3116" width="1873" height="1777"/>
        <path fill="rgb(255,255,255)" stroke="none" d="M 9115,3316 L 9008,3540 C 8977,3605 8966,3655 8977,3687 8988,3719 9012,3744 9049,3760 L 10237,4290 9994,4892 8674,4410 C 8509,4350 8410,4262 8378,4143 8346,4024 8372,3862 8459,3659 L 8710,3116 9115,3316 Z"/>
       </g>
      </g>
      <g class="com.sun.star.drawing.ClosedBezierShape">
       <g id="id11">
        <rect class="BoundingBox" stroke="none" fill="none" x="7779" y="4635" width="2153" height="2020"/>
        <path fill="rgb(255,255,255)" stroke="none" d="M 7827,5387 C 7863,5242 7913,5115 7975,5007 8037,4899 8111,4814 8194,4752 8277,4690 8368,4653 8470,4640 8572,4627 8682,4642 8799,4682 L 9931,5070 9747,5672 8616,5367 C 8552,5350 8500,5353 8458,5375 8416,5397 8385,5445 8366,5521 8347,5597 8352,5653 8379,5692 8406,5731 8451,5759 8515,5774 L 9657,6033 9538,6654 8356,6467 C 8234,6448 8129,6409 8046,6351 7962,6291 7898,6216 7854,6121 7810,6026 7785,5916 7780,5791 7775,5666 7791,5532 7827,5387 Z"/>
       </g>
      </g>
      <g class="com.sun.star.drawing.ClosedBezierShape">
       <g id="id12">
        <rect class="BoundingBox" stroke="none" fill="none" x="7541" y="6596" width="1969" height="2010"/>
        <path fill="rgb(255,255,255)" stroke="none" d="M 9509,6850 C 9486,7020 9467,7192 9453,7363 9198,7529 8947,7704 8701,7890 8942,7895 9184,7901 9425,7906 9421,8113 9423,8318 9432,8524 8805,8551 8178,8578 7552,8605 7543,8397 7539,8190 7542,7982 7785,7773 8035,7573 8288,7384 8049,7367 7809,7350 7568,7334 7585,7086 7611,6841 7644,6596 L 9509,6850 Z"/>
       </g>
      </g>
      <g class="com.sun.star.drawing.ClosedBezierShape">
       <g id="id13">
        <rect class="BoundingBox" stroke="none" fill="none" x="7565" y="8731" width="2026" height="1531"/>
        <path fill="rgb(255,255,255)" stroke="none" d="M 9443,8731 C 9468,9118 9518,9502 9590,9882 9429,9913 9267,9944 9105,9975 9070,9792 9040,9607 9016,9422 8947,9432 8878,9441 8809,9450 8834,9635 8864,9820 8899,10005 8745,10035 8592,10064 8438,10093 8402,9899 8370,9706 8344,9512 8273,9521 8201,9531 8129,9540 8157,9750 8191,9959 8232,10167 8070,10198 7909,10229 7747,10260 7657,9796 7596,9326 7565,8854 L 9443,8731 Z"/>
       </g>
      </g>
      <g class="com.sun.star.drawing.ClosedBezierShape">
       <g id="id14">
        <rect class="BoundingBox" stroke="none" fill="none" x="8232" y="10906" width="1988" height="1825"/>
        <path fill="rgb(255,255,255)" stroke="none" d="M 9577,12591 C 9289,12731 9034,12768 8812,12689 8590,12610 8417,12429 8310,12148 8202,11868 8208,11618 8321,11411 8434,11204 8648,11061 8956,10972 9264,10883 9517,10887 9721,10971 9925,11055 10065,11211 10154,11441 10242,11672 10242,11880 10146,12080 10050,12280 9865,12452 9577,12591 Z M 9308,11987 C 9582,11875 9694,11759 9646,11636 9598,11513 9438,11501 9160,11601 8882,11701 8766,11819 8818,11953 8870,12087 9034,12099 9308,11987 Z"/>
       </g>
      </g>
      <g class="com.sun.star.drawing.ClosedBezierShape">
       <g id="id15">
        <rect class="BoundingBox" stroke="none" fill="none" x="8749" y="12546" width="2270" height="1388"/>
        <path fill="rgb(255,255,255)" stroke="none" d="M 9229,12883 C 9304,13033 9388,13134 9474,13187 9560,13240 9640,13245 9714,13203 9764,13175 9797,13137 9812,13089 9828,13043 9832,12993 9824,12937 9816,12881 9802,12823 9779,12765 9756,12707 9732,12651 9706,12599 L 10612,12546 11018,13229 10577,13517 10372,13190 C 10370,13268 10359,13345 10339,13423 10320,13489 10290,13558 10248,13631 10206,13704 10143,13767 10058,13823 9943,13898 9826,13936 9704,13932 9582,13928 9464,13896 9350,13833 9236,13770 9130,13683 9032,13571 8934,13459 8851,13336 8784,13203 8769,13173 8760,13153 8757,13146 8753,13137 8750,13129 8749,13122 L 9229,12883 Z"/>
       </g>
      </g>
      <g class="com.sun.star.drawing.ClosedBezierShape">
       <g id="id16">
        <rect class="BoundingBox" stroke="none" fill="none" x="10106" y="13719" width="886" height="969"/>
        <path fill="rgb(255,255,255)" stroke="none" d="M 10498,13719 C 10653,13950 10817,14174 10991,14391 10869,14489 10746,14587 10623,14686 10441,14459 10269,14224 10106,13983 L 10498,13719 Z"/>
       </g>
      </g>
      <g class="com.sun.star.drawing.ClosedBezierShape">
       <g id="id17">
        <rect class="BoundingBox" stroke="none" fill="none" x="10218" y="14163" width="1868" height="1710"/>
        <path fill="rgb(255,255,255)" stroke="none" d="M 11100,14567 C 11115,14433 11133,14298 11153,14163 11358,14188 11564,14209 11769,14223 11871,14341 11977,14457 12085,14570 11632,15004 11179,15438 10726,15872 10550,15688 10381,15499 10218,15304 L 11100,14567 Z"/>
       </g>
      </g>
      <g class="com.sun.star.drawing.ClosedBezierShape">
       <g id="id18">
        <rect class="BoundingBox" stroke="none" fill="none" x="10973" y="14892" width="1786" height="1745"/>
        <path fill="rgb(255,255,255)" stroke="none" d="M 11778,15302 C 11780,15166 11785,15031 11791,14894 11998,14899 12204,14899 12409,14892 12523,15000 12640,15105 12758,15206 12351,15682 11942,16160 11535,16636 11342,16471 11155,16300 10974,16123 L 11778,15302 Z"/>
       </g>
      </g>
      <g class="com.sun.star.drawing.ClosedBezierShape">
       <g id="id19">
        <rect class="BoundingBox" stroke="none" fill="none" x="11428" y="16487" width="1177" height="824"/>
        <path fill="rgb(255,255,255)" stroke="none" d="M 12093,16487 C 12259,16621 12430,16750 12604,16874 12377,17023 12144,17168 11909,17309 11746,17187 11584,17058 11428,16927 L 12093,16487 Z"/>
       </g>
      </g>
      <g class="com.sun.star.drawing.ClosedBezierShape">
       <g id="id20">
        <rect class="BoundingBox" stroke="none" fill="none" x="12797" y="16152" width="1956" height="2133"/>
        <path fill="rgb(255,255,255)" stroke="none" d="M 13749,17139 C 13825,17096 13879,17060 13908,17034 13937,17007 13960,16978 13976,16948 14005,16896 14008,16845 13986,16795 13963,16745 13917,16699 13845,16657 13831,16649 13817,16642 13804,16635 13791,16628 13779,16623 13767,16618 13754,16613 13742,16607 13731,16600 L 13999,16152 C 14026,16161 14049,16170 14070,16178 14091,16186 14110,16193 14129,16202 14147,16211 14167,16221 14187,16231 14207,16242 14230,16254 14255,16268 14338,16315 14414,16366 14486,16426 14558,16486 14617,16552 14663,16624 14709,16698 14738,16778 14748,16865 14759,16953 14741,17047 14696,17146 14675,17192 14648,17236 14617,17276 14584,17315 14543,17357 14495,17398 14445,17439 14386,17484 14317,17531 14248,17578 14164,17632 14071,17692 L 14000,17735 14384,17919 13998,18284 12797,17622 13749,17139 Z"/>
       </g>
      </g>
      <g class="com.sun.star.drawing.ClosedBezierShape">
       <g id="id21">
        <rect class="BoundingBox" stroke="none" fill="none" x="14490" y="16865" width="1822" height="1989"/>
        <path fill="rgb(255,255,255)" stroke="none" d="M 16257,18106 C 16178,18416 16041,18634 15837,18753 15633,18872 15381,18886 15097,18787 14813,18688 14625,18520 14539,18300 14453,18080 14482,17824 14613,17532 14744,17240 14911,17049 15108,16948 15305,16847 15514,16840 15748,16922 15982,17004 16141,17139 16233,17341 16325,17543 16337,17796 16257,18106 Z M 15620,17921 C 15712,17640 15694,17480 15569,17436 15444,17392 15330,17507 15227,17784 15124,18061 15140,18224 15277,18272 15414,18320 15528,18202 15620,17921 Z"/>
       </g>
      </g>
      <g class="com.sun.star.drawing.ClosedBezierShape">
       <g id="id22">
        <rect class="BoundingBox" stroke="none" fill="none" x="16282" y="17282" width="1050" height="1946"/>
        <path fill="rgb(255,255,255)" stroke="none" d="M 16541,17960 C 16471,17844 16404,17725 16339,17606 16519,17502 16695,17395 16868,17282 17021,17315 17176,17344 17331,17369 17232,17988 17132,18608 17032,19227 16780,19186 16531,19138 16282,19080 L 16541,17960 Z"/>
       </g>
      </g>
      <g class="com.sun.star.drawing.ClosedBezierShape">
       <g id="id23">
        <rect class="BoundingBox" stroke="none" fill="none" x="17100" y="17411" width="1722" height="1922"/>
        <path fill="rgb(255,255,255)" stroke="none" d="M 17895,17970 C 17706,17952 17518,17929 17330,17900 17430,17738 17529,17575 17625,17411 18022,17462 18421,17488 18821,17488 18545,18115 18235,18731 17891,19332 17627,19310 17362,19278 17100,19238 L 17895,17970 Z"/>
       </g>
      </g>
     </g>
     <g class="Group">
      <g class="com.sun.star.drawing.ClosedBezierShape">
       <g id="id24">
        <rect class="BoundingBox" stroke="none" fill="none" x="10864" y="1593" width="1647" height="1923"/>
        <path fill="rgb(255,255,255)" stroke="none" d="M 10864,1593 L 11789,1631 C 11907,1641 12012,1662 12108,1695 12202,1726 12282,1769 12345,1820 12407,1871 12452,1931 12481,1999 12508,2067 12516,2143 12503,2226 12494,2285 12478,2336 12454,2374 12430,2413 12407,2445 12383,2471 12353,2501 12323,2525 12289,2543 12333,2576 12371,2616 12404,2662 12430,2702 12453,2752 12471,2809 12488,2868 12491,2936 12478,3014 12464,3103 12434,3181 12388,3247 12342,3314 12284,3369 12214,3411 12144,3453 12063,3483 11970,3499 11877,3515 11778,3519 11667,3509 L 10864,3475 10864,1593 Z M 11575,3058 C 11731,3069 11815,3024 11825,2914 11836,2806 11760,2743 11598,2731 L 11522,2726 11501,3053 11575,3058 Z M 11805,2207 C 11812,2122 11760,2072 11646,2064 L 11566,2059 11549,2318 11628,2324 C 11738,2332 11797,2294 11805,2207 Z"/>
       </g>
      </g>
      <g class="com.sun.star.drawing.ClosedBezierShape">
       <g id="id25">
        <rect class="BoundingBox" stroke="none" fill="none" x="12337" y="1906" width="1901" height="2194"/>
        <path fill="rgb(255,255,255)" stroke="none" d="M 13512,1907 C 13696,1952 13880,2001 14061,2054 14154,2736 14213,3418 14237,4099 14044,4025 13848,3957 13650,3896 13647,3836 13641,3775 13637,3715 13443,3657 13248,3605 13051,3558 13016,3608 12981,3658 12948,3708 12746,3662 12543,3623 12338,3591 L 13512,1907 Z M 13588,3269 C 13573,3150 13556,3031 13538,2913 13462,3006 13388,3100 13315,3196 L 13588,3269 Z"/>
       </g>
      </g>
      <g class="com.sun.star.drawing.ClosedBezierShape">
       <g id="id26">
        <rect class="BoundingBox" stroke="none" fill="none" x="14314" y="2225" width="1796" height="2163"/>
        <path fill="rgb(255,255,255)" stroke="none" d="M 14822,2837 C 14693,2786 14563,2738 14430,2692 14485,2537 14539,2381 14593,2225 15114,2407 15620,2627 16109,2882 16032,3028 15956,3175 15880,3320 15757,3256 15633,3194 15506,3134 15307,3552 15109,3969 14911,4387 14715,4295 14516,4208 14314,4129 L 14822,2837 Z"/>
       </g>
      </g>
      <g class="com.sun.star.drawing.ClosedBezierShape">
       <g id="id27">
        <rect class="BoundingBox" stroke="none" fill="none" x="15633" y="2932" width="1967" height="2186"/>
        <path fill="rgb(255,255,255)" stroke="none" d="M 16334,3572 C 16214,3501 16094,3434 15970,3368 16048,3223 16126,3078 16203,2932 16689,3193 17156,3488 17599,3816 17500,3949 17402,4081 17305,4213 17192,4130 17080,4050 16964,3971 16703,4354 16443,4735 16182,5117 16003,4996 15820,4879 15633,4770 L 16334,3572 Z"/>
       </g>
      </g>
      <g class="com.sun.star.drawing.ClosedBezierShape">
       <g id="id28">
        <rect class="BoundingBox" stroke="none" fill="none" x="16560" y="3890" width="1749" height="2285"/>
        <path fill="rgb(255,255,255)" stroke="none" d="M 17697,3890 C 17907,4049 18110,4215 18308,4388 18004,4736 17699,5085 17395,5433 17538,5558 17678,5688 17815,5822 17699,5939 17584,6057 17469,6174 17183,5894 16880,5632 16560,5390 L 17697,3890 Z"/>
       </g>
      </g>
      <g class="com.sun.star.drawing.ClosedBezierShape">
       <g id="id29">
        <rect class="BoundingBox" stroke="none" fill="none" x="17542" y="4918" width="2255" height="2217"/>
        <path fill="rgb(255,255,255)" stroke="none" d="M 18875,4918 C 19203,5247 19511,5596 19796,5964 19666,6065 19535,6166 19406,6267 19281,6106 19151,5949 19017,5795 18965,5841 18913,5886 18860,5932 18989,6081 19114,6232 19235,6387 19111,6483 18988,6579 18865,6675 18750,6526 18631,6382 18507,6240 18452,6288 18398,6335 18344,6383 18472,6530 18594,6679 18713,6832 18582,6933 18453,7033 18322,7134 18081,6823 17820,6526 17542,6247 L 18875,4918 Z"/>
       </g>
      </g>
      <g class="com.sun.star.drawing.ClosedBezierShape">
       <g id="id30">
        <rect class="BoundingBox" stroke="none" fill="none" x="20115" y="10712" width="2063" height="2467"/>
        <path fill="rgb(255,255,255)" stroke="none" d="M 21961,10712 C 22002,10917 22037,11123 22066,11328 21855,11562 21638,11786 21415,12003 21671,12178 21923,12361 22171,12554 22177,12761 22178,12969 22173,13178 21545,13163 20918,13148 20291,13133 20296,12923 20294,12713 20285,12503 20511,12493 20736,12484 20962,12474 20768,12341 20571,12214 20372,12092 20548,11938 20720,11777 20888,11612 20664,11641 20441,11670 20217,11699 20190,11491 20156,11283 20115,11077 L 21961,10712 Z"/>
       </g>
      </g>
      <g class="com.sun.star.drawing.ClosedBezierShape">
       <g id="id31">
        <rect class="BoundingBox" stroke="none" fill="none" x="20156" y="13339" width="2009" height="1472"/>
        <path fill="rgb(255,255,255)" stroke="none" d="M 22164,13425 C 22143,13890 22093,14353 22014,14810 21852,14783 21689,14755 21527,14727 21562,14527 21590,14325 21613,14123 21544,14115 21475,14108 21406,14100 21383,14294 21356,14489 21323,14682 21169,14656 21016,14630 20862,14603 20893,14419 20919,14233 20940,14047 20868,14039 20796,14031 20725,14023 20703,14215 20676,14407 20642,14598 20480,14570 20318,14542 20156,14514 20223,14126 20266,13732 20284,13339 L 22164,13425 Z"/>
       </g>
      </g>
      <g class="com.sun.star.drawing.ClosedBezierShape">
       <g id="id32">
        <rect class="BoundingBox" stroke="none" fill="none" x="19943" y="14612" width="1964" height="1555"/>
        <path fill="rgb(255,255,255)" stroke="none" d="M 20713,14714 C 20692,14756 20672,14801 20656,14849 20639,14888 20622,14933 20605,14984 20588,15035 20574,15086 20562,15139 20541,15231 20560,15287 20622,15302 20645,15308 20673,15299 20705,15276 20737,15253 20772,15223 20813,15185 20854,15147 20898,15107 20946,15063 20994,15019 21046,14979 21103,14942 21160,14905 21221,14878 21287,14859 21353,14840 21425,14837 21502,14851 21590,14867 21663,14900 21722,14951 21781,15002 21826,15067 21857,15145 21888,15223 21903,15310 21905,15409 21907,15508 21894,15612 21867,15717 21853,15773 21837,15827 21817,15881 21797,15935 21780,15982 21763,16025 21743,16073 21724,16121 21704,16166 L 21199,16014 C 21206,15997 21213,15979 21222,15957 21229,15941 21236,15922 21244,15901 21253,15879 21260,15857 21267,15833 21270,15820 21274,15804 21279,15783 21283,15764 21286,15744 21287,15726 21288,15708 21286,15691 21280,15675 21275,15659 21264,15650 21247,15645 21233,15641 21211,15652 21182,15675 21151,15699 21117,15727 21076,15760 21035,15793 20989,15830 20936,15869 20884,15907 20827,15939 20766,15964 20705,15989 20640,16006 20570,16014 20500,16022 20428,16013 20353,15988 20275,15963 20206,15926 20145,15876 20084,15826 20038,15766 20004,15694 19970,15622 19950,15539 19945,15443 19940,15347 19952,15240 19981,15120 19998,15048 20017,14981 20037,14920 20057,14859 20076,14805 20096,14758 20116,14705 20137,14656 20159,14612 L 20713,14714 Z"/>
       </g>
      </g>
      <g class="com.sun.star.drawing.ClosedBezierShape">
       <g id="id33">
        <rect class="BoundingBox" stroke="none" fill="none" x="19142" y="15944" width="2431" height="2380"/>
        <path fill="rgb(255,255,255)" stroke="none" d="M 21572,16552 C 21491,16791 21402,17026 21305,17258 21107,17175 20911,17094 20713,17011 20662,17134 20609,17256 20553,17376 20748,17465 20941,17555 21135,17644 21029,17874 20915,18101 20794,18323 20243,18022 19693,17722 19142,17421 19243,17236 19338,17047 19427,16856 19637,16953 19849,17051 20059,17148 20112,17034 20163,16918 20211,16802 19997,16713 19782,16623 19568,16534 19648,16341 19723,16144 19790,15945 L 21572,16552 Z"/>
       </g>
      </g>
     </g>
    </g>
   </g>
  </g>
 </g>
</svg>