<?xml version="1.0" encoding="UTF-8"?>
<!DOCTYPE svg PUBLIC "-//W3C//DTD SVG 1.1//EN" "http://www.w3.org/Graphics/SVG/1.1/DTD/svg11.dtd">
<svg version="1.2" width="143.01mm" height="191.01mm" viewBox="15400 400 14301 19101" preserveAspectRatio="xMidYMid" fill-rule="evenodd" stroke-width="28.222" stroke-linejoin="round" xmlns="http://www.w3.org/2000/svg" xmlns:ooo="http://xml.openoffice.org/svg/export" xmlns:xlink="http://www.w3.org/1999/xlink" xmlns:presentation="http://sun.com/xmlns/staroffice/presentation" xmlns:smil="http://www.w3.org/2001/SMIL20/" xmlns:anim="urn:oasis:names:tc:opendocument:xmlns:animation:1.0" xml:space="preserve">
 <defs class="ClipPathGroup">
  <clipPath id="presentation_clip_path" clipPathUnits="userSpaceOnUse">
   <rect x="15400" y="400" width="14301" height="19101"/>
  </clipPath>
 </defs>
 <defs class="TextShapeIndex">
  <g ooo:slide="id1" ooo:id-list="id3 id4 id5 id6 id7 id8 id9 id10 id11 id12 id13 id14 id15 id16 id17 id18 id19 id20 id21 id22 id23 id24 id25 id26 id27 id28 id29 id30 id31 id32 id33 id34 id35 id36 id37 id38 id39"/>
 </defs>
 <defs class="EmbeddedBulletChars">
  <g id="bullet-char-template(57356)" transform="scale(0.00048828125,-0.00048828125)">
   <path d="M 580,1141 L 1163,571 580,0 -4,571 580,1141 Z"/>
  </g>
  <g id="bullet-char-template(57354)" transform="scale(0.00048828125,-0.00048828125)">
   <path d="M 8,1128 L 1137,1128 1137,0 8,0 8,1128 Z"/>
  </g>
  <g id="bullet-char-template(10146)" transform="scale(0.00048828125,-0.00048828125)">
   <path d="M 174,0 L 602,739 174,1481 1456,739 174,0 Z M 1358,739 L 309,1346 659,739 1358,739 Z"/>
  </g>
  <g id="bullet-char-template(10132)" transform="scale(0.00048828125,-0.00048828125)">
   <path d="M 2015,739 L 1276,0 717,0 1260,543 174,543 174,936 1260,936 717,1481 1274,1481 2015,739 Z"/>
  </g>
  <g id="bullet-char-template(10007)" transform="scale(0.00048828125,-0.00048828125)">
   <path d="M 0,-2 C -7,14 -16,27 -25,37 L 356,567 C 262,823 215,952 215,954 215,979 228,992 255,992 264,992 276,990 289,987 310,991 331,999 354,1012 L 381,999 492,748 772,1049 836,1024 860,1049 C 881,1039 901,1025 922,1006 886,937 835,863 770,784 769,783 710,716 594,584 L 774,223 C 774,196 753,168 711,139 L 727,119 C 717,90 699,76 672,76 641,76 570,178 457,381 L 164,-76 C 142,-110 111,-127 72,-127 30,-127 9,-110 8,-76 1,-67 -2,-52 -2,-32 -2,-23 -1,-13 0,-2 Z"/>
  </g>
  <g id="bullet-char-template(10004)" transform="scale(0.00048828125,-0.00048828125)">
   <path d="M 285,-33 C 182,-33 111,30 74,156 52,228 41,333 41,471 41,549 55,616 82,672 116,743 169,778 240,778 293,778 328,747 346,684 L 369,508 C 377,444 397,411 428,410 L 1163,1116 C 1174,1127 1196,1133 1229,1133 1271,1133 1292,1118 1292,1087 L 1292,965 C 1292,929 1282,901 1262,881 L 442,47 C 390,-6 338,-33 285,-33 Z"/>
  </g>
  <g id="bullet-char-template(9679)" transform="scale(0.00048828125,-0.00048828125)">
   <path d="M 813,0 C 632,0 489,54 383,161 276,268 223,411 223,592 223,773 276,916 383,1023 489,1130 632,1184 813,1184 992,1184 1136,1130 1245,1023 1353,916 1407,772 1407,592 1407,412 1353,268 1245,161 1136,54 992,0 813,0 Z"/>
  </g>
  <g id="bullet-char-template(8226)" transform="scale(0.00048828125,-0.00048828125)">
   <path d="M 346,457 C 273,457 209,483 155,535 101,586 74,649 74,723 74,796 101,859 155,911 209,963 273,989 346,989 419,989 480,963 531,910 582,859 608,796 608,723 608,648 583,586 532,535 482,483 420,457 346,457 Z"/>
  </g>
  <g id="bullet-char-template(8211)" transform="scale(0.00048828125,-0.00048828125)">
   <path d="M -4,459 L 1135,459 1135,606 -4,606 -4,459 Z"/>
  </g>
 </defs>
 <defs class="TextEmbeddedBitmaps"/>
 <g class="SlideGroup">
  <g>
   <g id="id1" class="Slide" clip-path="url(#presentation_clip_path)">
    <g class="Page">
     <g class="com.sun.star.drawing.CustomShape">
      <g id="id3">
       <rect class="BoundingBox" stroke="none" fill="none" x="15399" y="399" width="14303" height="19103"/>
       <path fill="rgb(0,0,0)" stroke="none" d="M 22550,19500 L 15400,19500 15400,400 29700,400 29700,19500 22550,19500 Z"/>
       <path fill="none" stroke="rgb(52,101,164)" d="M 22550,19500 L 15400,19500 15400,400 29700,400 29700,19500 22550,19500 Z"/>
      </g>
     </g>
     <g class="com.sun.star.drawing.PolyPolygonShape">
      <g id="id4">
       <rect class="BoundingBox" stroke="none" fill="none" x="20000" y="13239" width="4798" height="5322"/>
       <path fill="rgb(50,65,87)" stroke="none" d="M 24797,13240 L 24567,16818 20000,18560 20011,13239 24797,13240 Z"/>
      </g>
     </g>
     <g class="com.sun.star.drawing.PolyPolygonShape">
      <g id="id5">
       <rect class="BoundingBox" stroke="none" fill="none" x="20016" y="8426" width="4969" height="4826"/>
       <path fill="rgb(119,167,191)" stroke="none" d="M 20016,13251 L 20041,8426 24425,10063 24984,10842 24797,13242 20016,13251 Z"/>
      </g>
     </g>
     <g class="com.sun.star.drawing.PolyPolygonShape">
      <g id="id6">
       <rect class="BoundingBox" stroke="none" fill="none" x="17062" y="6367" width="2982" height="12196"/>
       <path fill="rgb(176,211,32)" stroke="none" d="M 20001,18562 L 17062,16982 17062,13254 17348,12970 17386,10674 17597,10185 17811,9328 17798,8914 18169,7662 18468,8867 18504,9267 18600,9999 19052,8392 19052,7869 19497,6367 19976,7978 20043,8427 20001,18562 Z"/>
      </g>
     </g>
     <g class="com.sun.star.drawing.PolyPolygonShape">
      <g id="id7">
       <rect class="BoundingBox" stroke="none" fill="none" x="24566" y="1229" width="3668" height="16275"/>
       <path fill="rgb(238,35,40)" stroke="none" d="M 26895,5625 L 27255,6128 27673,9045 27682,10262 28233,16733 27055,17503 24566,16819 24984,10842 25040,9245 25174,8323 25288,6309 25696,5795 26006,1338 26390,1230 26895,5625 Z"/>
      </g>
     </g>
     <g class="Group">
      <g class="com.sun.star.drawing.ClosedBezierShape">
       <g id="id8">
        <rect class="BoundingBox" stroke="none" fill="none" x="20201" y="13833" width="1064" height="4065"/>
        <path fill="rgb(255,255,255)" stroke="none" d="M 20601,15900 C 20635,15739 20656,15620 20666,15542 20676,15463 20680,15390 20680,15322 20680,15198 20664,15107 20630,15043 20596,14979 20548,14951 20484,14958 20471,14959 20459,14960 20448,14965 20437,14967 20427,14972 20417,14976 20406,14982 20396,14984 20386,14985 L 20386,13893 C 20408,13882 20428,13872 20446,13864 20463,13856 20481,13850 20497,13847 20514,13842 20532,13839 20550,13837 20568,13835 20589,13834 20613,13834 20690,13833 20765,13853 20840,13892 20914,13931 20980,13996 21039,14083 21098,14170 21146,14285 21183,14429 21220,14572 21238,14749 21238,14959 21238,15057 21233,15156 21224,15253 21214,15351 21199,15458 21179,15574 21159,15692 21134,15824 21103,15971 21072,16119 21035,16293 20994,16493 L 20963,16640 21264,16558 21128,17560 20201,17896 20601,15900 Z"/>
       </g>
      </g>
      <g class="com.sun.star.drawing.ClosedBezierShape">
       <g id="id9">
        <rect class="BoundingBox" stroke="none" fill="none" x="21300" y="13799" width="1288" height="3577"/>
        <path fill="rgb(255,255,255)" stroke="none" d="M 22587,15454 C 22587,15991 22530,16413 22417,16739 22304,17065 22146,17274 21943,17350 21740,17426 21584,17328 21470,17046 21356,16764 21300,16307 21300,15693 21300,15079 21356,14603 21470,14278 21584,13953 21741,13800 21943,13800 22146,13800 22304,13950 22417,14233 22530,14516 22587,14918 22587,15454 Z M 22097,15545 C 22097,15023 22046,14767 21943,14778 21840,14789 21790,15064 21790,15602 21790,16142 21840,16399 21943,16371 22046,16343 22097,16067 22097,15545 Z"/>
       </g>
      </g>
      <g class="com.sun.star.drawing.ClosedBezierShape">
       <g id="id10">
        <rect class="BoundingBox" stroke="none" fill="none" x="22551" y="13869" width="733" height="3097"/>
        <path fill="rgb(255,255,255)" stroke="none" d="M 22766,15078 C 22694,14925 22622,14769 22551,14611 22667,14358 22783,14112 22900,13872 23027,13871 23155,13870 23283,13869 23283,14839 23283,15808 23283,16778 23110,16840 22938,16903 22766,16965 L 22766,15078 Z"/>
       </g>
      </g>
      <g class="com.sun.star.drawing.ClosedBezierShape">
       <g id="id11">
        <rect class="BoundingBox" stroke="none" fill="none" x="23331" y="13858" width="1168" height="2903"/>
        <path fill="rgb(255,255,255)" stroke="none" d="M 23786,14627 C 23640,14642 23494,14658 23348,14674 23407,14400 23466,14132 23525,13867 23849,13864 24174,13861 24498,13858 24289,14712 24079,15614 23869,16565 23690,16630 23510,16695 23331,16760 L 23786,14627 Z"/>
       </g>
      </g>
     </g>
     <g class="Group">
      <g class="com.sun.star.drawing.ClosedBezierShape">
       <g id="id12">
        <rect class="BoundingBox" stroke="none" fill="none" x="25050" y="15747" width="1468" height="1253"/>
        <path fill="rgb(255,255,255)" stroke="none" d="M 25050,16499 L 25067,16047 C 25070,15989 25080,15939 25099,15896 25117,15854 25143,15819 25177,15795 25210,15770 25251,15755 25300,15749 25349,15743 25405,15751 25470,15770 25515,15783 25555,15799 25587,15818 25619,15837 25645,15855 25666,15873 25692,15894 25713,15914 25730,15936 25751,15916 25777,15900 25809,15887 25837,15877 25871,15870 25913,15867 25955,15864 26006,15871 26065,15888 26134,15908 26196,15936 26252,15973 26308,16011 26355,16054 26394,16106 26433,16158 26464,16215 26485,16279 26506,16343 26516,16410 26516,16481 L 26516,16999 25050,16499 Z M 26175,16453 C 26176,16359 26135,16299 26051,16273 25967,16247 25924,16280 25922,16372 L 25922,16417 26174,16498 26175,16453 Z M 25510,16152 C 25442,16131 25409,16150 25407,16209 L 25406,16252 25606,16316 25607,16272 C 25608,16213 25576,16172 25510,16152 Z"/>
       </g>
      </g>
      <g class="com.sun.star.drawing.ClosedBezierShape">
       <g id="id13">
        <rect class="BoundingBox" stroke="none" fill="none" x="25101" y="14778" width="1416" height="1269"/>
        <path fill="rgb(255,255,255)" stroke="none" d="M 25101,15194 C 25104,15102 25108,15009 25112,14917 25583,14880 26052,14835 26516,14779 26516,14912 26516,15046 26516,15179 26474,15182 26432,15186 26390,15190 26390,15317 26390,15444 26389,15571 26432,15596 26474,15621 26516,15646 26516,15780 26516,15913 26516,16046 L 25101,15194 Z M 26080,15218 C 25997,15226 25914,15232 25831,15239 25913,15288 25996,15336 26078,15385 L 26080,15218 Z"/>
       </g>
      </g>
      <g class="com.sun.star.drawing.ClosedBezierShape">
       <g id="id14">
        <rect class="BoundingBox" stroke="none" fill="none" x="25122" y="13836" width="1396" height="891"/>
        <path fill="rgb(255,255,255)" stroke="none" d="M 25494,14507 C 25492,14580 25490,14653 25488,14725 25366,14698 25244,14670 25122,14642 25133,14373 25144,14104 25154,13836 25273,13856 25392,13877 25511,13898 25509,13970 25507,14043 25505,14116 25842,14179 26180,14243 26516,14306 26516,14446 26516,14585 26516,14725 L 25494,14507 Z"/>
       </g>
      </g>
      <g class="com.sun.star.drawing.ClosedBezierShape">
       <g id="id15">
        <rect class="BoundingBox" stroke="none" fill="none" x="25156" y="12977" width="1361" height="869"/>
        <path fill="rgb(255,255,255)" stroke="none" d="M 25519,13626 C 25517,13699 25515,13772 25513,13845 25394,13824 25275,13804 25156,13784 25167,13515 25177,13246 25188,12977 25304,12990 25420,13004 25536,13017 25534,13090 25532,13162 25530,13235 25859,13277 26188,13320 26516,13362 26516,13502 26516,13641 26516,13781 L 25519,13626 Z"/>
       </g>
      </g>
      <g class="com.sun.star.drawing.ClosedBezierShape">
       <g id="id16">
        <rect class="BoundingBox" stroke="none" fill="none" x="25190" y="12268" width="1327" height="793"/>
        <path fill="rgb(255,255,255)" stroke="none" d="M 25190,12915 C 25195,12787 25200,12660 25205,12532 25527,12558 25851,12584 26173,12610 26174,12496 26175,12382 26176,12268 26289,12274 26403,12281 26516,12287 26516,12545 26516,12803 26516,13060 L 25190,12915 Z"/>
       </g>
      </g>
      <g class="com.sun.star.drawing.ClosedBezierShape">
       <g id="id17">
        <rect class="BoundingBox" stroke="none" fill="none" x="25220" y="11460" width="1298" height="761"/>
        <path fill="rgb(255,255,255)" stroke="none" d="M 25220,12152 C 25229,11925 25238,11699 25247,11471 25358,11471 25469,11472 25580,11472 25577,11578 25574,11685 25571,11792 25618,11793 25666,11794 25713,11795 25716,11689 25718,11583 25721,11477 25826,11478 25932,11478 26037,11478 26035,11586 26034,11694 26032,11803 26082,11804 26131,11806 26180,11807 26182,11691 26183,11575 26184,11460 26295,11460 26406,11460 26517,11460 26516,11713 26516,11966 26516,12220 L 25220,12152 Z"/>
       </g>
      </g>
     </g>
     <g class="Group">
      <g class="com.sun.star.drawing.ClosedBezierShape">
       <g id="id18">
        <rect class="BoundingBox" stroke="none" fill="none" x="25248" y="9913" width="1272" height="1331"/>
        <path fill="rgb(255,255,255)" stroke="none" d="M 25248,11243 C 25253,11136 25260,11029 25266,10921 25431,10813 25595,10703 25757,10593 25604,10490 25452,10388 25301,10288 25307,10180 25313,10073 25319,9966 25719,9948 26119,9931 26518,9913 26518,10049 26518,10184 26518,10319 26372,10323 26225,10327 26079,10332 26199,10413 26321,10496 26444,10579 26319,10668 26194,10756 26068,10844 26217,10842 26368,10840 26517,10838 26517,10973 26517,11108 26517,11243 L 25248,11243 Z"/>
       </g>
      </g>
      <g class="com.sun.star.drawing.ClosedBezierShape">
       <g id="id19">
        <rect class="BoundingBox" stroke="none" fill="none" x="25326" y="9019" width="1195" height="820"/>
        <path fill="rgb(255,255,255)" stroke="none" d="M 25326,9838 C 25340,9599 25353,9360 25366,9120 25467,9113 25568,9105 25669,9097 25664,9208 25660,9320 25655,9430 25698,9427 25742,9425 25785,9422 25789,9312 25793,9203 25797,9094 25892,9086 25988,9079 26084,9072 26081,9182 26079,9292 26076,9404 26122,9401 26167,9398 26212,9395 26214,9277 26216,9160 26217,9043 26318,9036 26419,9028 26520,9020 26519,9274 26519,9527 26519,9780 L 25326,9838 Z"/>
       </g>
      </g>
      <g class="com.sun.star.drawing.ClosedBezierShape">
       <g id="id20">
        <rect class="BoundingBox" stroke="none" fill="none" x="25364" y="8186" width="1186" height="844"/>
        <path fill="rgb(255,255,255)" stroke="none" d="M 26163,8986 C 26172,8958 26179,8929 26184,8898 26189,8873 26195,8843 26199,8811 26204,8778 26205,8746 26205,8714 26206,8656 26187,8629 26149,8633 26135,8634 26120,8644 26104,8663 26089,8681 26070,8706 26051,8734 26032,8762 26011,8794 25987,8826 25964,8858 25936,8889 25905,8918 25875,8946 25841,8971 25803,8992 25765,9012 25721,9023 25673,9027 25619,9031 25573,9026 25532,9008 25491,8990 25460,8964 25434,8930 25409,8895 25389,8854 25378,8806 25367,8757 25363,8706 25366,8651 25368,8621 25370,8592 25375,8562 25380,8533 25383,8507 25387,8483 25392,8456 25397,8429 25401,8404 L 25714,8371 C 25712,8381 25711,8392 25710,8405 25707,8415 25706,8425 25705,8438 25702,8451 25702,8463 25701,8477 25701,8485 25701,8494 25701,8505 25701,8516 25702,8526 25704,8536 25706,8545 25710,8554 25715,8561 25720,8567 25728,8570 25738,8569 25747,8568 25758,8559 25773,8541 25787,8523 25803,8501 25822,8476 25840,8450 25862,8420 25886,8389 25911,8358 25939,8328 25969,8301 26000,8273 26034,8249 26072,8228 26110,8207 26152,8194 26199,8189 26247,8183 26293,8187 26336,8200 26378,8214 26415,8237 26446,8271 26478,8305 26503,8349 26521,8406 26540,8462 26549,8531 26549,8611 26549,8659 26547,8704 26543,8746 26539,8787 26534,8824 26529,8857 26522,8894 26516,8928 26508,8959 L 26163,8986 Z"/>
       </g>
      </g>
      <g class="com.sun.star.drawing.ClosedBezierShape">
       <g id="id21">
        <rect class="BoundingBox" stroke="none" fill="none" x="25418" y="7030" width="1105" height="1163"/>
        <path fill="rgb(255,255,255)" stroke="none" d="M 25418,8192 C 25426,8063 25433,7933 25440,7804 25563,7788 25685,7772 25808,7756 25811,7682 25813,7609 25816,7535 25695,7552 25574,7569 25452,7586 25460,7456 25467,7326 25474,7196 25823,7140 26173,7085 26522,7030 26522,7166 26522,7300 26522,7436 26390,7455 26257,7473 26126,7492 26124,7567 26123,7640 26121,7715 26254,7698 26388,7680 26521,7663 26521,7798 26521,7933 26521,8068 L 25418,8192 Z"/>
       </g>
      </g>
     </g>
     <g class="Group">
      <g class="com.sun.star.drawing.ClosedBezierShape">
       <g id="id22">
        <rect class="BoundingBox" stroke="none" fill="none" x="25919" y="5753" width="587" height="781"/>
        <path fill="rgb(255,255,255)" stroke="none" d="M 25920,6271 C 26005,6198 26090,6123 26175,6050 26090,6038 26005,6028 25920,6016 25920,5929 25920,5841 25920,5754 26115,5779 26310,5804 26505,5830 26505,5894 26505,5959 26505,6024 26310,6194 26115,6363 25920,6533 L 25920,6271 Z"/>
       </g>
      </g>
      <g class="com.sun.star.drawing.ClosedBezierShape">
       <g id="id23">
        <rect class="BoundingBox" stroke="none" fill="none" x="25919" y="5243" width="587" height="513"/>
        <path fill="rgb(255,255,255)" stroke="none" d="M 26148,5619 C 26117,5664 26087,5709 26056,5754 26011,5716 25965,5679 25920,5641 25920,5581 25920,5521 25920,5461 26115,5389 26310,5317 26505,5244 26505,5325 26505,5406 26505,5487 L 26148,5619 Z"/>
       </g>
      </g>
      <g class="com.sun.star.drawing.ClosedBezierShape">
       <g id="id24">
        <rect class="BoundingBox" stroke="none" fill="none" x="25905" y="4656" width="616" height="665"/>
        <path fill="rgb(255,255,255)" stroke="none" d="M 26213,4686 C 26313,4649 26389,4647 26441,4681 26494,4715 26520,4780 26520,4875 26520,4970 26494,5053 26441,5126 26389,5199 26313,5254 26213,5291 26114,5328 26038,5329 25985,5296 25932,5262 25906,5197 25906,5102 25906,5007 25932,4923 25985,4851 26038,4778 26114,4723 26213,4686 Z M 26213,4917 C 26121,4951 26075,4991 26075,5039 26075,5087 26121,5094 26213,5061 26305,5027 26351,4985 26351,4937 26351,4889 26305,4883 26213,4917 Z"/>
       </g>
      </g>
     </g>
     <g class="Group">
      <g class="com.sun.star.drawing.ClosedBezierShape">
       <g id="id25">
        <rect class="BoundingBox" stroke="none" fill="none" x="20261" y="8900" width="1144" height="2050"/>
        <path fill="rgb(255,255,255)" stroke="none" d="M 20662,10408 L 20801,10439 C 20842,10449 20864,10444 20868,10423 20872,10404 20864,10372 20846,10329 L 20262,8900 20680,9047 21311,10533 C 21390,10708 21418,10825 21397,10883 21375,10943 21305,10961 21187,10939 L 20865,10878 20662,10408 Z"/>
       </g>
      </g>
      <g class="com.sun.star.drawing.ClosedBezierShape">
       <g id="id26">
        <rect class="BoundingBox" stroke="none" fill="none" x="20800" y="9090" width="1714" height="2093"/>
        <path fill="rgb(255,255,255)" stroke="none" d="M 22194,11170 C 22114,11155 22036,11129 21957,11088 21878,11047 21804,10995 21730,10928 21657,10861 21588,10780 21522,10684 21456,10588 21395,10478 21339,10352 L 20801,9090 21206,9232 21733,10429 C 21762,10494 21794,10545 21828,10581 21863,10619 21901,10644 21944,10654 21987,10664 22010,10654 22012,10625 22016,10598 22002,10552 21973,10489 L 21446,9317 21854,9461 22392,10614 C 22447,10729 22483,10822 22500,10900 22517,10978 22516,11038 22496,11082 22477,11126 22442,11155 22391,11170 22340,11185 22274,11185 22194,11170 Z"/>
       </g>
      </g>
      <g class="com.sun.star.drawing.ClosedBezierShape">
       <g id="id27">
        <rect class="BoundingBox" stroke="none" fill="none" x="21981" y="9506" width="1930" height="1950"/>
        <path fill="rgb(255,255,255)" stroke="none" d="M 21982,9506 C 22093,9545 22204,9584 22315,9623 22540,9894 22766,10156 22991,10408 22882,10192 22774,9971 22665,9747 22798,9793 22930,9840 23063,9887 23345,10440 23627,10963 23909,11455 23797,11434 23686,11413 23574,11392 23350,11175 23125,10949 22901,10713 23009,10922 23117,11126 23226,11326 23093,11300 22960,11275 22828,11250 L 21982,9506 Z"/>
       </g>
      </g>
      <g class="com.sun.star.drawing.ClosedBezierShape">
       <g id="id28">
        <rect class="BoundingBox" stroke="none" fill="none" x="23196" y="9934" width="1610" height="1692"/>
        <path fill="rgb(255,255,255)" stroke="none" d="M 23197,9934 C 23446,10022 23695,10109 23945,10197 24019,10333 24093,10467 24167,10598 24053,10562 23938,10527 23824,10492 23855,10549 23887,10605 23918,10662 24030,10694 24143,10727 24255,10760 24325,10880 24395,10999 24466,11115 24353,11087 24241,11059 24129,11030 24161,11085 24194,11141 24226,11196 24345,11223 24464,11251 24582,11278 24656,11397 24730,11512 24804,11625 24550,11577 24297,11529 24043,11480 L 23197,9934 Z"/>
       </g>
      </g>
      <g class="com.sun.star.drawing.ClosedBezierShape">
       <g id="id29">
        <rect class="BoundingBox" stroke="none" fill="none" x="20547" y="11165" width="1420" height="1872"/>
        <path fill="rgb(255,255,255)" stroke="none" d="M 21768,12185 C 21912,12472 21977,12679 21963,12821 21949,12963 21861,13035 21700,13035 21539,13035 21374,12961 21209,12804 21043,12646 20888,12412 20744,12097 20600,11781 20535,11534 20549,11372 20563,11211 20650,11143 20812,11171 20973,11198 21136,11306 21304,11484 21470,11661 21625,11898 21768,12185 Z M 21378,12151 C 21245,11876 21138,11725 21057,11715 20976,11704 21002,11850 21134,12131 21267,12412 21373,12547 21455,12551 21536,12555 21511,12426 21378,12151 Z"/>
       </g>
      </g>
      <g class="com.sun.star.drawing.ClosedBezierShape">
       <g id="id30">
        <rect class="BoundingBox" stroke="none" fill="none" x="21610" y="11347" width="1113" height="1684"/>
        <path fill="rgb(255,255,255)" stroke="none" d="M 22029,12576 C 22124,12580 22185,12563 22211,12522 22237,12481 22232,12426 22194,12353 22168,12303 22137,12262 22101,12230 22066,12198 22028,12171 21988,12150 21948,12129 21907,12115 21867,12106 21827,12097 21789,12090 21755,12087 L 21611,11347 22127,11433 22364,11900 22126,11871 C 22185,11913 22244,11961 22304,12016 22354,12062 22408,12118 22464,12183 22520,12248 22570,12321 22617,12405 22679,12516 22713,12611 22720,12689 22727,12767 22714,12832 22682,12882 22649,12932 22601,12969 22537,12994 22473,13019 22400,13030 22320,13030 22302,13030 22290,13030 22284,13028 22279,13028 22274,13027 22270,13026 L 22029,12576 Z"/>
       </g>
      </g>
      <g class="com.sun.star.drawing.ClosedBezierShape">
       <g id="id31">
        <rect class="BoundingBox" stroke="none" fill="none" x="22519" y="12060" width="716" height="423"/>
        <path fill="rgb(255,255,255)" stroke="none" d="M 22520,12060 C 22688,12078 22855,12096 23023,12114 23093,12238 23164,12361 23234,12482 23067,12471 22899,12460 22732,12449 L 22520,12060 Z"/>
       </g>
      </g>
      <g class="com.sun.star.drawing.ClosedBezierShape">
       <g id="id32">
        <rect class="BoundingBox" stroke="none" fill="none" x="22854" y="11569" width="1233" height="1435"/>
        <path fill="rgb(255,255,255)" stroke="none" d="M 23159,12149 C 23057,12065 22956,11979 22854,11891 22881,11783 22909,11676 22936,11569 23037,11585 23139,11603 23240,11619 23522,12112 23804,12573 24086,13003 23949,13003 23812,13002 23675,13002 L 23159,12149 Z"/>
       </g>
      </g>
      <g class="com.sun.star.drawing.ClosedBezierShape">
       <g id="id33">
        <rect class="BoundingBox" stroke="none" fill="none" x="23456" y="11669" width="1234" height="1338"/>
        <path fill="rgb(255,255,255)" stroke="none" d="M 23761,12212 C 23659,12132 23558,12051 23456,11969 23483,11868 23511,11769 23538,11669 23639,11686 23741,11703 23842,11720 24124,12180 24406,12608 24688,13006 24551,13005 24414,13005 24277,13004 L 23761,12212 Z"/>
       </g>
      </g>
     </g>
     <g class="Group">
      <g class="com.sun.star.drawing.ClosedBezierShape">
       <g id="id34">
        <rect class="BoundingBox" stroke="none" fill="none" x="17899" y="15663" width="1571" height="1759"/>
        <path fill="rgb(255,255,255)" stroke="none" d="M 17899,16747 C 18125,16753 18353,16759 18580,16761 18353,16569 18125,16385 17899,16212 17899,16029 17899,15846 17899,15663 18421,16035 18945,16454 19469,16921 19469,17088 19469,17255 19469,17421 18945,17390 18421,17349 17899,17296 L 17899,16747 Z"/>
       </g>
      </g>
      <g class="com.sun.star.drawing.ClosedBezierShape">
       <g id="id35">
        <rect class="BoundingBox" stroke="none" fill="none" x="17899" y="15095" width="1571" height="1036"/>
        <path fill="rgb(255,255,255)" stroke="none" d="M 17899,15628 C 17899,15450 17899,15272 17899,15095 18421,15207 18945,15335 19469,15477 19469,15693 19469,15911 19469,16129 L 17899,15628 Z"/>
       </g>
      </g>
      <g class="com.sun.star.drawing.ClosedBezierShape">
       <g id="id36">
        <rect class="BoundingBox" stroke="none" fill="none" x="17899" y="14004" width="1571" height="1272"/>
        <path fill="rgb(255,255,255)" stroke="none" d="M 17899,14931 C 17899,14622 17899,14313 17899,14004 18034,14012 18172,14021 18309,14029 18309,14179 18309,14329 18309,14479 18368,14487 18426,14495 18484,14502 18484,14352 18484,14201 18484,14051 18614,14060 18745,14072 18875,14084 18875,14243 18875,14402 18875,14559 18936,14569 18996,14579 19057,14589 19057,14418 19057,14247 19057,14076 19194,14090 19332,14105 19469,14121 19469,14505 19469,14889 19469,15275 L 17899,14931 Z"/>
       </g>
      </g>
      <g class="com.sun.star.drawing.ClosedBezierShape">
       <g id="id37">
        <rect class="BoundingBox" stroke="none" fill="none" x="17899" y="12306" width="1571" height="1641"/>
        <path fill="rgb(255,255,255)" stroke="none" d="M 17899,13846 C 17899,13709 17899,13571 17899,13434 18099,13281 18301,13123 18503,12956 18301,12970 18099,12984 17899,13000 17899,12836 17899,12672 17899,12507 18421,12433 18945,12366 19469,12307 19469,12478 19469,12647 19469,12816 19268,12997 19067,13171 18866,13337 19067,13339 19268,13340 19469,13344 19469,13545 19469,13746 19469,13946 L 17899,13846 Z"/>
       </g>
      </g>
      <g class="com.sun.star.drawing.ClosedBezierShape">
       <g id="id38">
        <rect class="BoundingBox" stroke="none" fill="none" x="17899" y="10464" width="1571" height="1879"/>
        <path fill="rgb(255,255,255)" stroke="none" d="M 17899,12342 C 17899,12205 17899,12067 17899,11930 18099,11736 18301,11536 18503,11326 18301,11382 18099,11440 17899,11496 17899,11332 17899,11168 17899,11003 18421,10821 18945,10641 19469,10465 19469,10635 19469,10804 19469,10973 19268,11200 19067,11419 18866,11630 19067,11586 19268,11544 19469,11502 19469,11704 19469,11904 19469,12105 L 17899,12342 Z"/>
       </g>
      </g>
      <g class="com.sun.star.drawing.ClosedBezierShape">
       <g id="id39">
        <rect class="BoundingBox" stroke="none" fill="none" x="17899" y="8500" width="1572" height="1924"/>
        <path fill="rgb(255,255,255)" stroke="none" d="M 17899,10371 C 17899,10246 17899,10120 17899,9994 18421,9526 18945,9028 19469,8500 19469,8701 19469,8904 19469,9106 19422,9150 19375,9195 19328,9239 19328,9430 19328,9620 19328,9812 19375,9813 19422,9815 19469,9816 19469,10018 19469,10220 19469,10423 L 17899,10371 Z M 18981,9561 C 18889,9645 18797,9729 18705,9810 18797,9807 18889,9806 18981,9806 L 18981,9561 Z"/>
       </g>
      </g>
     </g>
    </g>
   </g>
  </g>
 </g>
</svg>