<?xml version="1.0" encoding="UTF-8" standalone="no"?>
<svg
   xmlns:dc="http://purl.org/dc/elements/1.1/"
   xmlns:cc="http://creativecommons.org/ns#"
   xmlns:rdf="http://www.w3.org/1999/02/22-rdf-syntax-ns#"
   xmlns:svg="http://www.w3.org/2000/svg"
   xmlns="http://www.w3.org/2000/svg"
   viewBox="0 0 1052.5 743.75"
   height="743.75"
   width="1052.5"
   xml:space="preserve"
   version="1.1"
   id="svg3355"><metadata
     id="metadata3361"><rdf:RDF><cc:Work
         rdf:about=""><dc:format>image/svg+xml</dc:format><dc:type
           rdf:resource="http://purl.org/dc/dcmitype/StillImage" /><dc:title></dc:title></cc:Work></rdf:RDF></metadata><defs
     id="defs3359"><clipPath
       id="clipPath3369"
       clipPathUnits="userSpaceOnUse"><path
         style="clip-rule:evenodd"
         id="path3371"
         d="m 0,-0.2 841.8,0 0,595.2 L 0,595 0,-0.2 Z" /></clipPath></defs><g
     transform="matrix(1.25,0,0,-1.25,0,743.75)"
     id="g3363"><g
       id="g3365"><g
         clip-path="url(#clipPath3369)"
         id="g3367"><path
           id="path3373"
           style="fill:#ffffff;fill-opacity:1;fill-rule:evenodd;stroke:none"
           d="m 0,595 841.9,0 0,-595.2 L 0,-0.2 0,595 Z" /><path
           id="path3375"
           style="fill:#273142;fill-opacity:1;fill-rule:evenodd;stroke:none"
           d="m 0,595 841.9,0 0,-595.3 L 0,-0.3 0,595 Z" /><g
           id="g3377"><path
             id="path3379"
             style="fill:none;stroke:#0077c8;stroke-width:11.31999969;stroke-linecap:butt;stroke-linejoin:round;stroke-miterlimit:10;stroke-dasharray:none;stroke-opacity:1"
             d="m 622,195.2 -31.2,87 -23.7,-87" /></g><g
           id="g3381"><path
             id="path3383"
             style="fill:none;stroke:#0077c8;stroke-width:11.31999969;stroke-linecap:butt;stroke-linejoin:round;stroke-miterlimit:10;stroke-dasharray:none;stroke-opacity:1"
             d="m 601.2,251 -18.9,0" /></g><g
           id="g3385"><path
             id="path3387"
             style="fill:none;stroke:#0077c8;stroke-width:11.31999969;stroke-linecap:butt;stroke-linejoin:round;stroke-miterlimit:10;stroke-dasharray:none;stroke-opacity:1"
             d="m 608.7,233 -32.1,0" /></g><g
           id="g3389"><path
             id="path3391"
             style="fill:none;stroke:#0077c8;stroke-width:8.48999977;stroke-linecap:butt;stroke-linejoin:round;stroke-miterlimit:10;stroke-dasharray:none;stroke-opacity:1"
             d="m 591.9,347 c 38.4,0 67.7,-29.3 67.7,-67.6 0,-38.3 -29.3,-67.6 -67.7,-67.6 -38.3,0 -67.6,29.3 -67.6,67.6 0,38.3 29.3,67.6 67.6,67.6 z" /></g><g
           id="g3393"><path
             id="path3395"
             style="fill:none;stroke:#0077c8;stroke-width:8.48999977;stroke-linecap:butt;stroke-linejoin:round;stroke-miterlimit:10;stroke-dasharray:none;stroke-opacity:1"
             d="m 524.3,347 0,0 z" /></g><g
           id="g3397"><path
             id="path3399"
             style="fill:none;stroke:#0077c8;stroke-width:8.48999977;stroke-linecap:butt;stroke-linejoin:round;stroke-miterlimit:10;stroke-dasharray:none;stroke-opacity:1"
             d="m 659.6,211.8 0,0 z" /></g><g
           id="g3401"><path
             id="path3403"
             style="fill:none;stroke:#0077c8;stroke-width:8.48999977;stroke-linecap:butt;stroke-linejoin:round;stroke-miterlimit:10;stroke-dasharray:none;stroke-opacity:1"
             d="m 591.9,334.2 c 31.3,0 55.1,-23.8 55.1,-55.1 0,-31.2 -23.8,-55.1 -55.1,-55.1 -31.2,0 -55.1,23.9 -55.1,55.1 0,31.3 23.9,55.1 55.1,55.1 z" /></g><g
           id="g3405"><path
             id="path3407"
             style="fill:none;stroke:#0077c8;stroke-width:8.48999977;stroke-linecap:butt;stroke-linejoin:round;stroke-miterlimit:10;stroke-dasharray:none;stroke-opacity:1"
             d="m 536.8,334.2 0,0 z" /></g><g
           id="g3409"><path
             id="path3411"
             style="fill:none;stroke:#0077c8;stroke-width:8.48999977;stroke-linecap:butt;stroke-linejoin:round;stroke-miterlimit:10;stroke-dasharray:none;stroke-opacity:1"
             d="m 647.1,224 0,0 z" /></g><g
           id="g3413"><path
             id="path3415"
             style="fill:none;stroke:#0077c8;stroke-width:8.48999977;stroke-linecap:butt;stroke-linejoin:round;stroke-miterlimit:10;stroke-dasharray:none;stroke-opacity:1"
             d="m 519.6,255.3 c 0,2.1 1.4,4.2 2.9,4.2 1.4,0 2.8,-2.1 2.8,-4.2 l 0,-4.3 -5.7,0 0,4.3 z" /></g><g
           id="g3417"><path
             id="path3419"
             style="fill:none;stroke:#0077c8;stroke-width:8.48999977;stroke-linecap:butt;stroke-linejoin:round;stroke-miterlimit:10;stroke-dasharray:none;stroke-opacity:1"
             d="m 519.6,251 0,0 z" /></g><g
           id="g3421"><path
             id="path3423"
             style="fill:none;stroke:#0077c8;stroke-width:8.48999977;stroke-linecap:butt;stroke-linejoin:round;stroke-miterlimit:10;stroke-dasharray:none;stroke-opacity:1"
             d="m 525.3,259.5 0,0 z" /></g><g
           id="g3425"><path
             id="path3427"
             style="fill:none;stroke:#0077c8;stroke-width:8.48999977;stroke-linecap:butt;stroke-linejoin:round;stroke-miterlimit:10;stroke-dasharray:none;stroke-opacity:1"
             d="m 515.8,286.5 c 0,2.1 1.5,4.3 2.9,4.3 1.4,0 2.8,-2.2 2.8,-4.3 l 0,-4.3 -5.7,0 0,4.3 z" /></g><g
           id="g3429"><path
             id="path3431"
             style="fill:none;stroke:#0077c8;stroke-width:8.48999977;stroke-linecap:butt;stroke-linejoin:round;stroke-miterlimit:10;stroke-dasharray:none;stroke-opacity:1"
             d="m 515.8,282.2 0,0 z" /></g><g
           id="g3433"><path
             id="path3435"
             style="fill:none;stroke:#0077c8;stroke-width:8.48999977;stroke-linecap:butt;stroke-linejoin:round;stroke-miterlimit:10;stroke-dasharray:none;stroke-opacity:1"
             d="m 521.5,290.8 0,0 z" /></g><g
           id="g3437"><path
             id="path3439"
             style="fill:none;stroke:#0077c8;stroke-width:8.48999977;stroke-linecap:butt;stroke-linejoin:round;stroke-miterlimit:10;stroke-dasharray:none;stroke-opacity:1"
             d="m 525.3,316.7 c 0,2.1 1.4,4.3 2.9,4.3 1.4,0 2.8,-2.2 2.8,-4.3 l 0,-4.3 -5.7,0 0,4.3 z" /></g><g
           id="g3441"><path
             id="path3443"
             style="fill:none;stroke:#0077c8;stroke-width:8.48999977;stroke-linecap:butt;stroke-linejoin:round;stroke-miterlimit:10;stroke-dasharray:none;stroke-opacity:1"
             d="m 525.3,312.4 0,0 z" /></g><g
           id="g3445"><path
             id="path3447"
             style="fill:none;stroke:#0077c8;stroke-width:8.48999977;stroke-linecap:butt;stroke-linejoin:round;stroke-miterlimit:10;stroke-dasharray:none;stroke-opacity:1"
             d="m 531,321 0,0 z" /></g><g
           id="g3449"><path
             id="path3451"
             style="fill:none;stroke:#0077c8;stroke-width:8.48999977;stroke-linecap:butt;stroke-linejoin:round;stroke-miterlimit:10;stroke-dasharray:none;stroke-opacity:1"
             d="m 546.1,342.2 c 0,2.2 1.4,4.3 2.8,4.3 1.4,0 2.9,-2.1 2.9,-4.3 l 0,-4.2 -5.7,0 0,4.2 z" /></g><g
           id="g3453"><path
             id="path3455"
             style="fill:none;stroke:#0077c8;stroke-width:8.48999977;stroke-linecap:butt;stroke-linejoin:round;stroke-miterlimit:10;stroke-dasharray:none;stroke-opacity:1"
             d="m 546.1,338 0,0 z" /></g><g
           id="g3457"><path
             id="path3459"
             style="fill:none;stroke:#0077c8;stroke-width:8.48999977;stroke-linecap:butt;stroke-linejoin:round;stroke-miterlimit:10;stroke-dasharray:none;stroke-opacity:1"
             d="m 551.8,346.5 0,0 z" /></g><g
           id="g3461"><path
             id="path3463"
             style="fill:none;stroke:#0077c8;stroke-width:8.48999977;stroke-linecap:butt;stroke-linejoin:round;stroke-miterlimit:10;stroke-dasharray:none;stroke-opacity:1"
             d="m 575.4,352.6 c 0,2.2 1.4,4.3 2.8,4.3 1.5,0 2.9,-2.1 2.9,-4.3 l 0,-4.2 -5.7,0 0,4.2 z" /></g><g
           id="g3465"><path
             id="path3467"
             style="fill:none;stroke:#0077c8;stroke-width:8.48999977;stroke-linecap:butt;stroke-linejoin:round;stroke-miterlimit:10;stroke-dasharray:none;stroke-opacity:1"
             d="m 575.4,348.4 0,0 z" /></g><g
           id="g3469"><path
             id="path3471"
             style="fill:none;stroke:#0077c8;stroke-width:8.48999977;stroke-linecap:butt;stroke-linejoin:round;stroke-miterlimit:10;stroke-dasharray:none;stroke-opacity:1"
             d="m 581.1,356.9 0,0 z" /></g><g
           id="g3473"><path
             id="path3475"
             style="fill:none;stroke:#0077c8;stroke-width:8.48999977;stroke-linecap:butt;stroke-linejoin:round;stroke-miterlimit:10;stroke-dasharray:none;stroke-opacity:1"
             d="m 606.6,352.6 c 0,2.2 1.5,4.3 2.9,4.3 1.4,0 2.8,-2.1 2.8,-4.3 l 0,-4.2 -5.7,0 0,4.2 z" /></g><g
           id="g3477"><path
             id="path3479"
             style="fill:none;stroke:#0077c8;stroke-width:8.48999977;stroke-linecap:butt;stroke-linejoin:round;stroke-miterlimit:10;stroke-dasharray:none;stroke-opacity:1"
             d="m 606.6,348.4 0,0 z" /></g><g
           id="g3481"><path
             id="path3483"
             style="fill:none;stroke:#0077c8;stroke-width:8.48999977;stroke-linecap:butt;stroke-linejoin:round;stroke-miterlimit:10;stroke-dasharray:none;stroke-opacity:1"
             d="m 612.3,356.9 0,0 z" /></g><g
           id="g3485"><path
             id="path3487"
             style="fill:none;stroke:#0077c8;stroke-width:8.48999977;stroke-linecap:butt;stroke-linejoin:round;stroke-miterlimit:10;stroke-dasharray:none;stroke-opacity:1"
             d="m 635,339.4 c 0,2.1 1.4,4.3 2.9,4.3 1.4,0 2.8,-2.2 2.8,-4.3 l 0,-4.3 -5.7,0 0,4.3 z" /></g><g
           id="g3489"><path
             id="path3491"
             style="fill:none;stroke:#0077c8;stroke-width:8.48999977;stroke-linecap:butt;stroke-linejoin:round;stroke-miterlimit:10;stroke-dasharray:none;stroke-opacity:1"
             d="m 635,335.1 0,0 z" /></g><g
           id="g3493"><path
             id="path3495"
             style="fill:none;stroke:#0077c8;stroke-width:8.48999977;stroke-linecap:butt;stroke-linejoin:round;stroke-miterlimit:10;stroke-dasharray:none;stroke-opacity:1"
             d="m 640.7,343.7 0,0 z" /></g><g
           id="g3497"><path
             id="path3499"
             style="fill:none;stroke:#0077c8;stroke-width:8.48999977;stroke-linecap:butt;stroke-linejoin:round;stroke-miterlimit:10;stroke-dasharray:none;stroke-opacity:1"
             d="m 656.8,312.9 c 0,2.2 1.4,4.3 2.8,4.3 1.4,0 2.8,-2.1 2.8,-4.3 l 0,-4.2 -5.6,0 0,4.2 z" /></g><g
           id="g3501"><path
             id="path3503"
             style="fill:none;stroke:#0077c8;stroke-width:8.48999977;stroke-linecap:butt;stroke-linejoin:round;stroke-miterlimit:10;stroke-dasharray:none;stroke-opacity:1"
             d="m 656.8,308.7 0,0 z" /></g><g
           id="g3505"><path
             id="path3507"
             style="fill:none;stroke:#0077c8;stroke-width:8.48999977;stroke-linecap:butt;stroke-linejoin:round;stroke-miterlimit:10;stroke-dasharray:none;stroke-opacity:1"
             d="m 662.5,317.2 0,0 z" /></g><g
           id="g3509"><path
             id="path3511"
             style="fill:none;stroke:#0077c8;stroke-width:8.48999977;stroke-linecap:butt;stroke-linejoin:round;stroke-miterlimit:10;stroke-dasharray:none;stroke-opacity:1"
             d="m 663.4,282.7 c 0,2.1 1.4,4.3 2.8,4.3 1.4,0 2.9,-2.2 2.9,-4.3 l 0,-4.3 -5.7,0 0,4.3 z" /></g><g
           id="g3513"><path
             id="path3515"
             style="fill:none;stroke:#0077c8;stroke-width:8.48999977;stroke-linecap:butt;stroke-linejoin:round;stroke-miterlimit:10;stroke-dasharray:none;stroke-opacity:1"
             d="m 663.4,278.4 0,0 z" /></g><g
           id="g3517"><path
             id="path3519"
             style="fill:none;stroke:#0077c8;stroke-width:8.48999977;stroke-linecap:butt;stroke-linejoin:round;stroke-miterlimit:10;stroke-dasharray:none;stroke-opacity:1"
             d="m 669.1,287 0,0 z" /></g><g
           id="g3521"><path
             id="path3523"
             style="fill:none;stroke:#0077c8;stroke-width:8.48999977;stroke-linecap:butt;stroke-linejoin:round;stroke-miterlimit:10;stroke-dasharray:none;stroke-opacity:1"
             d="m 657.7,252.4 c 0,2.2 1.4,4.3 2.9,4.3 1.4,0 2.8,-2.1 2.8,-4.3 l 0,-4.2 -5.7,0 0,4.2 z" /></g><g
           id="g3525"><path
             id="path3527"
             style="fill:none;stroke:#0077c8;stroke-width:8.48999977;stroke-linecap:butt;stroke-linejoin:round;stroke-miterlimit:10;stroke-dasharray:none;stroke-opacity:1"
             d="m 657.7,248.2 0,0 z" /></g><g
           id="g3529"><path
             id="path3531"
             style="fill:none;stroke:#0077c8;stroke-width:8.48999977;stroke-linecap:butt;stroke-linejoin:round;stroke-miterlimit:10;stroke-dasharray:none;stroke-opacity:1"
             d="m 663.4,256.7 0,0 z" /></g><g
           id="g3533"><path
             id="path3535"
             style="fill:none;stroke:#0077c8;stroke-width:8.48999977;stroke-linecap:butt;stroke-linejoin:round;stroke-miterlimit:10;stroke-dasharray:none;stroke-opacity:1"
             d="m 644.5,227.8 c 0,2.2 1.4,4.3 2.8,4.3 1.4,0 2.9,-2.1 2.9,-4.3 l 0,-4.2 -5.7,0 0,4.2 z" /></g><g
           id="g3537"><path
             id="path3539"
             style="fill:none;stroke:#0077c8;stroke-width:8.48999977;stroke-linecap:butt;stroke-linejoin:round;stroke-miterlimit:10;stroke-dasharray:none;stroke-opacity:1"
             d="m 644.5,223.6 0,0 z" /></g><g
           id="g3541"><path
             id="path3543"
             style="fill:none;stroke:#0077c8;stroke-width:8.48999977;stroke-linecap:butt;stroke-linejoin:round;stroke-miterlimit:10;stroke-dasharray:none;stroke-opacity:1"
             d="m 650.2,232.1 0,0 z" /></g><g
           id="g3545"><path
             id="path3547"
             style="fill:none;stroke:#0077c8;stroke-width:8.48999977;stroke-linecap:butt;stroke-linejoin:round;stroke-miterlimit:10;stroke-dasharray:none;stroke-opacity:1"
             d="m 533.8,227.8 c 0,2.2 1.5,4.3 2.9,4.3 1.4,0 2.9,-2.1 2.9,-4.3 l 0,-4.2 -5.8,0 0,4.2 z" /></g><g
           id="g3549"><path
             id="path3551"
             style="fill:none;stroke:#0077c8;stroke-width:8.48999977;stroke-linecap:butt;stroke-linejoin:round;stroke-miterlimit:10;stroke-dasharray:none;stroke-opacity:1"
             d="m 533.8,223.6 0,0 z" /></g><g
           id="g3553"><path
             id="path3555"
             style="fill:none;stroke:#0077c8;stroke-width:8.48999977;stroke-linecap:butt;stroke-linejoin:round;stroke-miterlimit:10;stroke-dasharray:none;stroke-opacity:1"
             d="m 539.6,232.1 0,0 z" /></g><path
           id="path3557"
           style="fill:#273142;fill-opacity:1;fill-rule:evenodd;stroke:none"
           d="m 331.7,302.7 c 0.1,1.4 0.4,2.9 1.1,4.3 2.1,3.9 0.9,2.2 3.9,5 3.8,3 8,3.6 12.4,1.9 6.3,-2.4 9.3,-8.9 7.6,-15.5 -1.6,-6 -7.8,-9.9 -14.2,-9 -1.8,0.3 -3.6,0.6 -5.4,0.3 -4.7,-0.9 -7,-2 -8.5,-4.5 -0.2,2 -0.8,4.1 -1.4,6.1 4.3,2.8 3.7,5.1 4.5,11.4 z" /><g
           id="g3559"><path
             id="path3561"
             style="fill:none;stroke:#273142;stroke-width:14.14999008;stroke-linecap:butt;stroke-linejoin:miter;stroke-miterlimit:7.66129017;stroke-dasharray:none;stroke-opacity:1"
             d="m 331.7,302.7 c 0.1,1.4 0.4,2.9 1.1,4.3 2.1,3.9 0.9,2.2 3.9,5 3.8,3 8,3.6 12.4,1.9 6.3,-2.4 9.3,-8.9 7.6,-15.5 -1.6,-6 -7.8,-9.9 -14.2,-9 -1.8,0.3 -3.6,0.6 -5.4,0.3 -4.7,-0.9 -7,-2 -8.5,-4.5 -0.2,2 -0.8,4.1 -1.4,6.1 4.3,2.8 3.7,5.1 4.5,11.4 z" /></g><g
           id="g3563"><path
             id="path3565"
             style="fill:none;stroke:#273142;stroke-width:14.14999008;stroke-linecap:butt;stroke-linejoin:miter;stroke-miterlimit:7.66129017;stroke-dasharray:none;stroke-opacity:1"
             d="m 309,434.3 7.4,-64.9 5.3,-7.4 6.2,-43.1 0.2,-17.9 8.1,-95.5 -17.4,-11.4" /></g><path
           id="path3567"
           style="fill:#0077c8;fill-opacity:1;fill-rule:evenodd;stroke:none"
           d="m 289.6,259.1 -2.1,-52.7 -72.9,-27.9 0,80.6 75,0 z" /><path
           id="path3569"
           style="fill:#0077c8;fill-opacity:1;fill-rule:evenodd;stroke:none"
           d="m 214.8,256.8 0.4,71.3 64.7,-24.2 34,-47.1 -99.1,0 z" /><path
           id="path3571"
           style="fill:#0077c8;fill-opacity:1;fill-rule:evenodd;stroke:none"
           d="m 214.7,178.7 -43.4,23.3 0,55 4.2,4.2 0.6,33.9 3.1,7.2 3.2,12.7 -0.2,6.1 5.5,18.4 4.4,-17.8 0.5,-5.9 1.4,-10.8 6.7,23.8 0,7.7 6.6,22.1 7.1,-23.7 0.9,-6.6 3.2,-20.3 -0.2,-45.2 -2.9,-8.8 -0.7,-75.3 z" /><path
           id="path3573"
           style="fill:#0077c8;fill-opacity:1;fill-rule:evenodd;stroke:none"
           d="m 316.4,369.4 5.3,-7.4 6.2,-43.1 0.1,-17.9 8.1,-95.5 -17.3,-11.4 -36.8,10.1 6.2,88.2 0.8,23.6 2,13.6 1.7,29.7 6,7.6 4.6,65.8 5.6,1.6 7.5,-64.9 z" /><path
           id="path3575"
           style="fill:#273142;fill-opacity:1;fill-rule:evenodd;stroke:none"
           d="m 188.9,253.7 c 0.7,0.1 1.3,0.3 2,0.3 0.1,0 0.2,0 0.3,0 0.5,-0.3 1,-0.7 1.4,-1 -0.2,-1.5 -0.5,-3 -0.6,-4.4 -0.1,-1.4 0.1,-2.8 0.7,-4.1 0.8,-1.8 2.2,-2.2 3.9,-1.3 1.4,0.6 2.6,1.7 3.6,2.9 3.9,4.3 6.2,9.4 6.6,15.2 0.1,1.4 0.1,2.7 -0.2,4.1 -0.1,0.5 -0.3,1 -0.5,1.4 -0.7,1.3 -1.8,1.6 -2.9,0.9 -0.9,-0.4 -1.7,-1 -2.5,-1.7 -1.5,-1.4 -2.8,-3.1 -4,-4.8 -0.2,-0.4 -0.4,-0.4 -0.8,-0.4 -0.8,0.2 -1.5,0.4 -1.7,1.4 -0.1,0.3 -0.3,0.6 -0.5,0.7 -0.3,0.4 -0.2,0.7 0,1.1 1,1.3 1.9,2.7 2.9,3.9 1.3,1.7 2.9,2.8 4.9,3.7 2.7,1.1 5.2,0.6 7.4,-1.3 2.1,-1.6 3.4,-3.6 4.4,-5.9 1.6,-3.3 2.2,-6.8 2.1,-10.5 -0.2,-3.4 -1.1,-6.6 -3.2,-9.4 -1.6,-2.1 -3.7,-3.7 -6.1,-4.9 -2.7,-1.4 -5.6,-2 -8.7,-1.9 -1.9,0.1 -3.7,0.5 -5.4,1.3 -2,1.1 -3.1,2.8 -3.7,4.9 -0.8,3.4 -0.3,6.6 0.6,9.8 z" /><path
           id="path3577"
           style="fill:#273142;fill-opacity:1;fill-rule:evenodd;stroke:none"
           d="m 189.8,258.7 c -1.4,-1.1 -2.8,-1.2 -4,-0.3 -1,0.9 -1.4,2.3 -0.8,3.6 0.7,1.2 2,1.8 3.4,1.4 1.4,-0.4 2.2,-1.6 2.1,-3.5 0.6,-0.1 1.1,-0.3 1.7,-0.4 2.3,-0.6 4.5,-1.3 6.7,-1.9 0.6,-0.1 0.8,-0.3 0.9,-1 0,-1.3 -0.5,-2.4 -1.5,-3.1 -0.5,-0.3 -0.8,-0.2 -1.3,0.1 -2.3,1.6 -4.6,3.2 -6.8,4.8 -0.1,0.1 -0.3,0.2 -0.4,0.3 z" /><g
           id="g3579"><path
             id="path3581"
             style="fill:none;stroke:#273142;stroke-width:14.14999008;stroke-linecap:butt;stroke-linejoin:miter;stroke-miterlimit:7.66129017;stroke-dasharray:none;stroke-opacity:1"
             d="m 335.2,297.1 c 0.3,1.9 6.1,18.1 6.4,18.9 1.4,2.4 2.7,4.9 4.1,7.3 1.9,3.1 4.5,5.6 7.6,7.3 4.6,2.5 9,2.2 13.4,-0.6 3.7,-2.3 6.6,-5.6 8.8,-9.3 3.4,-5.5 5.3,-11.5 5.7,-17.9 0.5,-6 -0.4,-11.8 -3.5,-17 -2.4,-4.1 -5.6,-7.3 -9.6,-10 -4.5,-2.9 -9.5,-4.6 -14.8,-5.1 -3.2,-0.2 -6.5,0.1 -9.6,1.3 -3.7,1.3 -6.1,4.2 -7.5,7.7 -2,6 -1.8,11.7 -1,17.4 z" /></g><g
           id="g3583"><path
             id="path3585"
             style="fill:none;stroke:#273142;stroke-width:14.14999008;stroke-linecap:butt;stroke-linejoin:miter;stroke-miterlimit:7.66129017;stroke-dasharray:none;stroke-opacity:1"
             d="m 479.1,320.4 c 0,3.3 0.2,6.7 1.4,9.8 3.3,9.1 1.2,5 7.1,11.9 7.3,7.6 16.2,10.1 26.3,7.6 14.4,-3.5 22.9,-16.7 20.8,-31.8 -1.8,-13.3 -14.2,-23.5 -28.4,-23.3 -4,0 -7.9,0.3 -11.9,-1 -9.8,-3.1 -14.6,-6.2 -17.2,-12.1 -0.9,4.5 -2.8,8.7 -4.6,13 8.5,7.3 6.5,12.1 6.5,25.9 z" /></g><g
           id="g3587"><path
             id="path3589"
             style="fill:none;stroke:#273142;stroke-width:14.14999008;stroke-linecap:butt;stroke-linejoin:miter;stroke-miterlimit:7.66129017;stroke-dasharray:none;stroke-opacity:1"
             d="m 413.7,443 24.6,0 66.4,-236.9 c 0,0 0.1,-0.2 0.1,-0.6 0.2,-0.5 0.3,-1 0.3,-1.5 0,-9.5 -34.2,-17.3 -76.3,-17.3" /></g><path
           id="path3591"
           style="fill:#00c7c8;fill-opacity:1;fill-rule:evenodd;stroke:none"
           d="m 335.3,306.5 c -2.3,-2.2 -4.7,-2.6 -6.9,-1.3 -2,1.3 -2.9,3.8 -2,6 0.7,2.2 3.1,3.7 5.5,3.3 2.6,-0.4 4.1,-2.3 4.3,-5.6 1,-0.2 2.1,-0.3 3,-0.5 4.1,-0.6 8.1,-1.2 12.2,-1.9 1.1,-0.2 1.5,-0.4 1.6,-1.5 0.5,-2.2 -0.2,-4.1 -1.9,-5.6 -0.7,-0.7 -1.4,-0.7 -2.2,-0.2 -4.2,2.3 -8.5,4.7 -12.9,7 -0.2,0.1 -0.6,0.3 -0.7,0.3 z" /><g
           id="g3593"><path
             id="path3595"
             style="fill:none;stroke:#273142;stroke-width:14.14999008;stroke-linecap:butt;stroke-linejoin:miter;stroke-miterlimit:7.66129017;stroke-dasharray:none;stroke-opacity:1"
             d="m 335.3,306.5 c -2.3,-2.2 -4.7,-2.6 -6.9,-1.3 -2,1.3 -2.9,3.8 -2,6 0.7,2.2 3.1,3.7 5.5,3.3 2.6,-0.4 4.1,-2.3 4.3,-5.6 1,-0.2 2.1,-0.3 3,-0.5 4.1,-0.6 8.1,-1.2 12.2,-1.9 1.1,-0.2 1.5,-0.4 1.6,-1.5 0.5,-2.2 -0.2,-4.1 -1.9,-5.6 -0.7,-0.7 -1.4,-0.7 -2.2,-0.2 -4.2,2.3 -8.5,4.7 -12.9,7 -0.2,0.1 -0.6,0.3 -0.7,0.3 z" /></g><path
           id="path3597"
           style="fill:#ffffff;fill-opacity:1;fill-rule:evenodd;stroke:none"
           d="m 456,502.6 c 4.7,-0.2 7.7,1.7 8.7,5.4 0.8,3.3 -0.7,6.8 -3.8,8.4 -3.1,1.6 -6.8,0.8 -9.1,-2 -2.4,-2.9 -2.1,-6.5 0.9,-10.2 -0.8,-1.2 -1.7,-2.3 -2.6,-3.5 -3.7,-4.6 -7.5,-9.2 -11.2,-13.9 -0.9,-1.2 -1,-2 -0.1,-3.4 1.8,-2.7 4.4,-4.1 7.6,-3.9 1.5,0 2.2,0.6 2.6,2 2.2,6.7 4.5,13.4 6.8,20.1 0,0.2 0.2,0.6 0.2,1 z" /><path
           id="path3599"
           style="fill:#ffffff;fill-opacity:1;fill-rule:evenodd;stroke:none"
           d="m 488,203.5 c 3.2,0 5.7,2.5 5.8,5.7 0.1,3.2 -2.5,5.9 -5.7,5.9 l -9.8,0.2 c 0.3,0.5 0.5,1.2 0.6,1.9 0.4,2.7 -1.3,5.3 -3.8,6.3 l -70.4,24.8 65.5,15.7 c 2.7,0.7 4.6,3.2 4.4,6 -0.2,2.8 -2.3,5.2 -5.1,5.4 l -60.9,7.3 55.5,34.8 c 2.1,1.2 3.1,3.6 2.6,5.9 -0.5,2.3 -2.3,4.2 -4.6,4.7 l -36.1,6.3 28.6,8.5 c 2.2,0.7 3.8,2.6 4.1,4.9 0.3,2.4 -0.8,4.6 -2.9,5.7 l -36.9,21.3 27,20.7 c 2.5,1.9 3,5.5 1,8.1 -1.9,2.5 -5.6,3 -8.1,1.1 l -33.8,-26 c -1.5,-1.1 -2.4,-3 -2.2,-4.9 0.1,-2 1.3,-3.8 2.9,-4.7 l 32.7,-18.8 -39.1,-11.6 c -2.7,-0.8 -4.3,-3.2 -4.2,-5.9 0.2,-2.7 2.1,-4.9 4.8,-5.4 l 45.5,-8 -56.7,-35.4 c -2.1,-1.3 -3.1,-3.8 -2.6,-6.3 0.6,-2.4 2.5,-4.1 4.9,-4.4 l 45.1,-5.3 -53,-12.7 c -2.5,-0.6 -4.3,-2.8 -4.4,-5.4 -0.2,-2.5 1.4,-4.9 3.8,-5.7 l 62.1,-22.2 -69.3,-4.5 c -3.1,-0.2 -5.5,-2.8 -5.4,-5.9 0.1,-3.1 2.6,-5.6 5.7,-5.7 l 112.3,-2.4 0.1,0 z" /><path
           id="path3601"
           style="fill:#ffffff;fill-opacity:1;fill-rule:evenodd;stroke:none"
           d="m 352.9,202.2 c -0.3,0.5 -0.5,1.3 -0.5,1.8 0,0.2 0,0.4 0,0.5 -0.1,2.4 0.8,4.7 0.8,4.7 7.2,26.7 42.9,157.4 43.1,157.2 -0.2,-0.3 17.4,76.6 17.4,76.6 l 24.6,0 66.4,-236.9 c 0,0 0.1,-0.2 0.1,-0.6 0.2,-0.5 0.3,-1 0.3,-1.5 0,-9.5 -34.2,-17.3 -76.3,-17.3 -34.4,0 -63.6,5.3 -73,12.3 -1.5,0.8 -2.4,2 -2.9,3.2 z m 80.5,215.7 -9,-1.3 -38.7,-192.2 c 7.8,-1.5 18,-2.7 29.3,-3.3 4.4,0.2 9,0.3 13.8,0.3 5.1,0 10.1,-0.1 15.1,-0.4 8.8,0.5 17.5,1.4 25.5,2.8 l -36,194.1 z" /><path
           id="path3603"
           style="fill:#ffffff;fill-opacity:1;fill-rule:evenodd;stroke:none"
           d="m 462.6,495.4 c -2.3,1.7 -8.5,-5.4 -6.8,-7.1 2.8,-2.8 5.5,-5.4 8,-8.2 2.4,-2.7 4.1,-5.9 4.8,-9.4 0.9,-5.1 -1.4,-7.8 -6.2,-8.6 -4,-0.8 -8,-0.3 -11.8,0.6 -14.5,3.2 -26.8,10.1 -36.5,21.5 -2.3,2.6 -4.3,5.5 -5.6,8.7 -0.5,1.2 -0.9,2.5 -1.1,3.9 -0.5,3.4 1.1,5.7 4.6,6 2.5,0.3 5.1,0.3 7.5,0.1 5.4,-0.5 10.6,-2.1 15.6,-3.9 0.9,-0.3 1.4,-0.3 2,0.4 3.1,2.5 3.7,6.2 2.9,7.3 0.2,1.4 -1.9,2.2 -3.1,2.6 -3.9,1.3 -7.8,2.7 -11.7,3.8 -5.2,1.4 -10.3,1.4 -15.5,0.1 -7.3,-1.8 -11.7,-6.5 -13.6,-13.8 -1.6,-6.2 -1.5,-12.5 -0.2,-18.8 1.9,-9.2 5.8,-17.4 11.6,-24.7 5.5,-6.9 12.2,-12.1 20.6,-14.6 6.6,-2.1 13.3,-2.2 20.1,-1.1 7.7,1.4 14.7,4.4 20.7,9.3 3.8,3 6.9,6.6 9,10.9 2.6,5.1 2.3,10.4 0.3,15.5 -3.1,8.3 -9.1,14.3 -15.6,19.5 z" /><path
           id="path3605"
           style="fill:#ffffff;fill-opacity:1;fill-rule:evenodd;stroke:none"
           d="m 479.1,320.4 c 0,3.3 0.2,6.7 1.4,9.8 3.3,9.1 15.8,12.7 23.4,6.6 3.7,-3 5.2,-9.1 3.4,-13.8 -1.8,-4.9 -5.4,-6.8 -12.2,-6.7 -1.1,0 -3.1,1.2 -3.3,-0.9 0,-1.5 1.7,-3 3,-3.2 8.6,-0.9 16.3,3.8 17.9,10.9 1.7,8 -1.7,16.4 -10,19.1 -4.2,1.5 -10.9,1.3 -15.1,-0.1 7.3,7.7 16.3,10.2 26.3,7.7 14.4,-3.6 22.9,-16.8 20.8,-31.9 -1.8,-13.3 -14.1,-23.5 -28.3,-23.3 -4,0.1 -8,0.3 -11.9,-0.9 -9.8,-3.1 -14.6,-6.3 -17.2,-12.2 -1,4.5 -2.9,8.7 -4.7,13 8.5,7.3 6.5,12.1 6.5,25.9 z" /><path
           id="path3607"
           style="fill:#ffffff;fill-opacity:1;fill-rule:evenodd;stroke:none"
           d="m 335.3,306.5 c -2.3,-2.2 -4.7,-2.6 -6.9,-1.3 -2,1.3 -2.9,3.8 -2,6 0.8,2.2 3.1,3.7 5.5,3.3 2.6,-0.4 4.2,-2.3 4.3,-5.6 1,-0.2 2.1,-0.3 3.1,-0.5 4,-0.6 8.1,-1.2 12.1,-1.9 1.1,-0.2 1.6,-0.4 1.7,-1.5 0.4,-2.2 -0.3,-4.1 -1.9,-5.6 -0.8,-0.7 -1.4,-0.7 -2.3,-0.2 -4.2,2.3 -8.5,4.7 -12.8,7 -0.3,0.1 -0.6,0.3 -0.8,0.3 z" /><path
           id="path3609"
           style="fill:#ffffff;fill-opacity:1;fill-rule:evenodd;stroke:none"
           d="m 335.2,297.1 c 0.3,1.9 6.7,1.3 6.7,-0.4 0,-2.7 -0.3,-5.3 -0.2,-7.9 0.2,-2.5 0.7,-4.8 2.1,-7.1 1.8,-3 4.2,-3.2 7.1,-1.4 2.4,1.4 4.2,3.6 5.7,5.8 5.8,8.4 8.8,17.7 8.3,27.9 -0.1,2.4 -0.3,4.7 -1.2,7 -0.3,0.9 -0.8,1.8 -1.3,2.4 -1.3,2.1 -3.3,2.5 -5.2,1 -1.4,-1 -2.7,-2.2 -3.7,-3.5 -2.6,-2.7 -4.4,-5.9 -6.1,-9.3 -0.3,-0.6 -0.6,-0.8 -1.2,-0.7 -2.6,-0.2 -4.8,1.5 -4.9,2.3 -0.7,0.6 0,2 0.3,2.8 1.4,2.4 2.7,4.9 4.1,7.3 1.9,3.1 4.5,5.6 7.6,7.3 4.6,2.5 9,2.2 13.4,-0.6 3.7,-2.3 6.6,-5.6 8.8,-9.3 3.4,-5.5 5.3,-11.5 5.7,-17.9 0.5,-6 -0.4,-11.8 -3.5,-17 -2.4,-4.1 -5.6,-7.3 -9.6,-10 -4.5,-2.9 -9.5,-4.6 -14.8,-5.1 -3.2,-0.2 -6.5,0.1 -9.6,1.3 -3.7,1.3 -6.1,4.2 -7.5,7.7 -2,6 -1.8,11.7 -1,17.4 z" /><g
           id="text3611"
           style="font-variant:normal;font-weight:bold;font-size:72px;font-family:'PT Sans';-inkscape-font-specification:PTSans-Bold;writing-mode:lr-tb;fill:#ffffff;fill-opacity:1;fill-rule:nonzero;stroke:none"
           transform="matrix(1,0,0,-1,148.2,99.3)"><path
             style=""
             id="path3622"
             d="m 38.232,-38.664 q 0,1.872 -0.504,3.744 -0.432,1.872 -1.512,3.456 -1.08,1.512 -2.808,2.736 -1.728,1.152 -4.176,1.728 l 0,0.432 q 2.16,0.36 4.104,1.224 1.944,0.864 3.384,2.376 1.44,1.512 2.232,3.672 0.864,2.16 0.864,5.112 0,3.888 -1.656,6.768 -1.656,2.808 -4.464,4.608 -2.736,1.8 -6.264,2.664 -3.528,0.864 -7.272,0.864 -1.224,0 -3.168,0 -1.872,0 -4.104,-0.144 Q 10.728,0.504 8.424,0.288 6.192,0.072 4.32,-0.36 l 0,-49.68 q 1.368,-0.216 3.096,-0.432 1.8,-0.216 3.816,-0.36 2.016,-0.144 4.104,-0.216 2.16,-0.072 4.248,-0.072 3.528,0 6.84,0.576 3.384,0.504 5.976,1.872 2.664,1.368 4.248,3.816 1.584,2.448 1.584,6.192 z m -18,31.248 q 1.8,0 3.456,-0.432 1.728,-0.432 3.024,-1.296 1.296,-0.936 2.088,-2.304 0.792,-1.368 0.792,-3.24 0,-2.376 -0.936,-3.744 -0.936,-1.368 -2.448,-2.088 -1.512,-0.792 -3.384,-1.008 -1.872,-0.216 -3.744,-0.216 l -5.256,0 0,13.896 q 0.36,0.144 1.152,0.216 0.792,0.072 1.656,0.144 0.936,0 1.872,0.072 1.008,0 1.728,0 z m -3.24,-21.816 q 1.008,0 2.304,-0.072 1.368,-0.072 2.232,-0.216 2.736,-0.864 4.68,-2.592 2.016,-1.728 2.016,-4.536 0,-1.872 -0.72,-3.096 -0.72,-1.224 -1.944,-1.944 -1.152,-0.72 -2.664,-1.008 -1.512,-0.288 -3.168,-0.288 -1.872,0 -3.456,0.072 -1.584,0.072 -2.448,0.216 l 0,13.464 3.168,0 z" /><path
             style=""
             id="path3624"
             d="m 71.711998,-11.16 -15.48,0 -3.816,11.16 -9.864,0 18.144,-50.76 7.272,0 18.144,50.76 -10.368,0 -4.032,-11.16 z m -12.96,-7.92 10.8,0 -3.744,-11.232 -1.512,-7.92 -0.36,0 -1.512,7.992 -3.672,11.16 z" /><path
             style=""
             id="path3626"
             d="m 120.528,-41.616 -14.688,0 0,41.616 -9.863996,0 0,-41.616 -14.76,0 0,-8.784 39.311996,0 0,8.784 z" /><path
             style=""
             id="path3628"
             d="m 162.792,-41.616 -14.688,0 0,41.616 -9.864,0 0,-41.616 -14.76,0 0,-8.784 39.312,0 0,8.784 z" /><path
             style=""
             id="path3630"
             d="m 199.8,0 -31.896,0 0,-50.4 9.864,0 0,41.616 22.032,0 0,8.784 z" /><path
             style=""
             id="path3632"
             d="m 204.912,-50.4 29.88,0 0,8.784 -20.016,0 0,11.736 18.216,0 0,8.784 -18.216,0 0,12.312 20.376,0 0,8.784 -30.24,0 0,-50.4 z" /><path
             style=""
             id="path3634"
             d="m 281.59199,-26.136 1.08,-10.008 -0.432,0 -3.096,8.064 -10.728,18.792 -3.168,0 -11.304,-18.864 -3.168,-7.992 -0.36,0 1.44,9.936 0,26.208 -9.36,0 0,-50.4 9,0 13.464,23.04 2.376,5.76 0.288,0 2.16,-5.904 12.744,-22.896 8.928,0 0,50.4 -9.864,0 0,-26.136 z" /><path
             style=""
             id="path3636"
             d="m 300.096,-50.4 29.88,0 0,8.784 -20.016,0 0,11.736 18.216,0 0,8.784 -18.216,0 0,12.312 20.376,0 0,8.784 -30.24,0 0,-50.4 z" /><path
             style=""
             id="path3638"
             d="m 359.42399,-13.536 q 0,-2.304 -1.728,-3.744 -1.656,-1.44 -4.248,-2.592 -2.52,-1.224 -5.544,-2.448 -2.952,-1.296 -5.544,-3.096 -2.52,-1.872 -4.248,-4.608 -1.656,-2.736 -1.656,-6.984 0,-3.672 1.224,-6.336 1.224,-2.736 3.456,-4.536 2.304,-1.8 5.4,-2.664 3.096,-0.864 6.912,-0.864 4.392,0 8.28,0.792 3.888,0.72 6.408,2.16 l -3.096,8.28 q -1.584,-1.008 -4.752,-1.8 -3.168,-0.864 -6.84,-0.864 -3.456,0 -5.328,1.368 -1.8,1.368 -1.8,3.672 0,2.16 1.656,3.6 1.728,1.44 4.248,2.664 2.592,1.224 5.544,2.52 3.024,1.296 5.544,3.168 2.592,1.8 4.248,4.536 1.728,2.664 1.728,6.696 0,4.032 -1.368,6.984 -1.296,2.88 -3.744,4.824 -2.376,1.944 -5.832,2.88 -3.384,0.936 -7.488,0.936 -5.4,0 -9.504,-1.008 -4.104,-1.008 -6.048,-2.016 l 3.168,-8.424 q 0.792,0.432 2.016,0.936 1.296,0.504 2.88,0.936 1.584,0.432 3.312,0.72 1.8,0.288 3.672,0.288 4.392,0 6.696,-1.44 2.376,-1.512 2.376,-4.536 z" /><path
             style=""
             id="path3640"
             d="m 404.13599,-21.096 -18.432,0 0,21.096 -9.864,0 0,-50.4 9.864,0 0,20.52 18.432,0 0,-20.52 9.864,0 0,50.4 -9.864,0 0,-21.096 z" /><path
             style=""
             id="path3642"
             d="m 451.728,-17.136 1.224,5.544 0.36,0 1.008,-5.688 6.12,-18.72 10.08,0 -15.048,36.36 -5.688,0 -15.624,-36.36 10.872,0 6.696,18.864 z" /><path
             style=""
             id="path3644"
             d="m 476.712,-7.92 10.008,0 0,-28.44 1.08,-4.896 -3.456,4.248 -6.408,4.392 -3.96,-5.4 16.416,-13.248 5.256,0 0,43.344 9.792,0 0,7.92 -28.728,0 0,-7.92 z" /><path
             style=""
             id="path3646"
             d="m 513.14401,-25.272 q 0,-13.248 4.536,-19.656 4.536,-6.48 13.032,-6.48 9.072,0 13.32,6.408 4.248,6.336 4.248,19.728 0,13.32 -4.608,19.8 -4.536,6.48 -13.032,6.48 -9,0 -13.248,-6.768 -4.248,-6.84 -4.248,-19.512 z m 9.36,0 q 0,8.784 1.872,13.608 1.944,4.752 6.336,4.752 4.248,0 6.192,-4.392 2.016,-4.392 2.016,-13.968 0,-8.712 -1.872,-13.464 -1.872,-4.752 -6.408,-4.752 -4.32,0 -6.264,4.464 -1.872,4.464 -1.872,13.752 z" /></g><g
           id="g3615"><g
             id="text3617"
             style="font-variant:normal;font-weight:bold;font-size:34px;font-family:'PT Sans';-inkscape-font-specification:PTSans-Bold;writing-mode:lr-tb;fill:#0077c8;fill-opacity:1;fill-rule:nonzero;stroke:none"
             transform="matrix(1,0,0,-1,154.3,48.8)"><path
               id="path3649"
               style=""
               d="m 4.454,-23.8 4.658,0 0,17.408 q 0,1.36 -0.306,2.584 Q 8.5,-2.584 7.786,-1.632 7.106,-0.714 6.018,-0.136 4.93,0.408 3.366,0.408 2.38,0.408 1.224,0.204 0.068,0 -0.782,-0.374 l 1.02,-3.808 q 0.884,0.442 2.006,0.442 1.428,0 1.802,-1.054 0.408,-1.054 0.408,-2.788 l 0,-16.218 z" /><path
               id="path3651"
               style=""
               d="m 26.316,-23.8 4.42,0 0,15.368 q 0,2.312 -0.612,3.978 -0.612,1.666 -1.7,2.754 -1.088,1.088 -2.652,1.598 -1.564,0.51 -3.434,0.51 -9.044,0 -9.044,-8.262 l 0,-15.946 4.658,0 0,15.028 q 0,1.394 0.238,2.38 0.272,0.952 0.816,1.564 0.544,0.578 1.36,0.85 0.816,0.238 1.904,0.238 2.142,0 3.094,-1.19 0.952,-1.19 0.952,-3.842 l 0,-15.028 z" /><path
               id="path3653"
               style=""
               d="m 40.595999,-12.41 -1.87,-3.74 -0.17,0 0.544,3.74 0,12.41 -4.42,0 0,-23.97 3.4,0 9.01,12.682 1.802,3.638 0.17,0 -0.544,-3.638 0,-12.512 4.42,0 0,23.97 -3.4,0 -8.942,-12.58 z" /><path
               id="path3655"
               style=""
               d="m 56.984,-23.8 14.11,0 0,4.148 -9.452,0 0,5.542 8.602,0 0,4.148 -8.602,0 0,5.814 9.622,0 0,4.148 -14.28,0 0,-23.8 z" /><path
               id="path3657"
               style=""
               d="m 82.620002,-11.934 q 0,-6.256 2.142,-9.282 2.142,-3.06 6.154,-3.06 4.284,0 6.29,3.026 2.006,2.992 2.006,9.316 0,6.29 -2.176,9.35 -2.142,3.06 -6.154,3.06 -4.25,0 -6.256,-3.196 -2.006,-3.23 -2.006,-9.214 z m 4.42,0 q 0,4.148 0.884,6.426 0.918,2.244 2.992,2.244 2.006,0 2.924,-2.074 0.952,-2.074 0.952,-6.596 0,-4.114 -0.884,-6.358 -0.884,-2.244 -3.026,-2.244 -2.04,0 -2.958,2.108 -0.884,2.108 -0.884,6.494 z" /><path
               id="path3659"
               style=""
               d="m 108.018,-3.434 q 2.244,0 3.434,-1.088 1.19,-1.088 1.19,-2.992 0,-2.04 -1.394,-2.992 -1.394,-0.952 -3.978,-0.952 l -2.686,0.102 0,-12.444 11.696,0 0,4.148 -7.888,0 0,4.59 1.394,-0.136 q 1.666,0.068 2.992,0.612 1.36,0.544 2.312,1.53 0.952,0.952 1.462,2.346 0.51,1.36 0.51,3.06 0,2.006 -0.68,3.536 -0.68,1.53 -1.904,2.55 -1.19,1.02 -2.822,1.53 -1.632,0.51 -3.57,0.51 -1.53,0 -2.924,-0.272 -1.36,-0.238 -2.312,-0.68 l 1.19,-3.672 q 0.782,0.34 1.7,0.544 0.952,0.17 2.278,0.17 z" /><path
               id="path3661"
               style=""
               d="m 121.652,-11.73 8.534,0 0,3.91 -8.534,0 0,-3.91 z" /><path
               id="path3663"
               style=""
               d="m 135.456,-3.74 4.726,0 0,-13.43 0.51,-2.312 -1.632,2.006 -3.026,2.074 -1.87,-2.55 7.752,-6.256 2.482,0 0,20.468 4.624,0 0,3.74 -13.566,0 0,-3.74 z" /><path
               id="path3665"
               style=""
               d="m 154.734,-3.74 4.726,0 0,-13.43 0.51,-2.312 -1.632,2.006 -3.026,2.074 -1.87,-2.55 7.752,-6.256 2.482,0 0,20.468 4.624,0 0,3.74 -13.566,0 0,-3.74 z" /><path
               id="path3667"
               style=""
               d="m 172.006,-2.176 q 0,-1.156 0.748,-1.836 0.782,-0.68 1.904,-0.68 1.428,0 2.244,0.952 0.816,0.952 0.816,2.516 0,1.53 -0.476,2.618 -0.476,1.122 -1.19,1.836 -0.68,0.748 -1.496,1.156 -0.782,0.442 -1.428,0.646 l -1.292,-1.836 q 0.918,-0.374 1.598,-1.224 0.68,-0.85 0.748,-1.802 -0.782,0.102 -1.496,-0.476 -0.68,-0.578 -0.68,-1.87 z" /><path
               id="path3669"
               style=""
               d="m 200.736,-17.986 q 0,1.734 -0.646,3.502 -0.612,1.768 -1.598,3.468 -0.952,1.7 -2.142,3.298 -1.156,1.564 -2.278,2.89 l -1.802,1.394 0,0.17 2.448,-0.476 6.528,0 0,3.74 -14.314,0 0,-2.278 q 0.816,-0.85 1.836,-1.972 1.02,-1.156 2.04,-2.414 1.054,-1.292 2.04,-2.652 0.986,-1.36 1.768,-2.72 0.782,-1.394 1.224,-2.686 0.476,-1.292 0.476,-2.448 0,-1.394 -0.816,-2.278 -0.782,-0.918 -2.516,-0.918 -1.088,0 -2.244,0.476 -1.122,0.442 -1.904,1.156 l -1.768,-3.128 q 1.326,-1.088 2.992,-1.734 1.7,-0.68 3.978,-0.68 1.462,0 2.686,0.408 1.224,0.408 2.108,1.19 0.884,0.782 1.394,1.972 0.51,1.156 0.51,2.72 z" /><path
               id="path3671"
               style=""
               d="m 205.224,-11.934 q 0,-6.256 2.142,-9.282 2.142,-3.06 6.154,-3.06 4.284,0 6.29,3.026 2.006,2.992 2.006,9.316 0,6.29 -2.176,9.35 -2.142,3.06 -6.154,3.06 -4.25,0 -6.256,-3.196 -2.006,-3.23 -2.006,-9.214 z m 4.42,0 q 0,4.148 0.884,6.426 0.918,2.244 2.992,2.244 2.006,0 2.924,-2.074 0.952,-2.074 0.952,-6.596 0,-4.114 -0.884,-6.358 -0.884,-2.244 -3.026,-2.244 -2.04,0 -2.958,2.108 -0.884,2.108 -0.884,6.494 z" /><path
               id="path3673"
               style=""
               d="m 226.576,-3.74 4.726,0 0,-13.43 0.51,-2.312 -1.632,2.006 -3.026,2.074 -1.87,-2.55 7.752,-6.256 2.482,0 0,20.468 4.624,0 0,3.74 -13.566,0 0,-3.74 z" /><path
               id="path3675"
               style=""
               d="m 245.956,0 7.786,-18.326 1.496,-1.666 -2.04,0.34 -8.738,0 0,-4.148 15.334,0 0,1.292 -9.52,22.508 -4.318,0 z" /><path
               id="path3677"
               style=""
               d="m 285.90599,-9.826 0.612,4.046 0.17,0 0.68,-4.08 4.556,-13.94 4.896,0 -8.84,23.97 -3.332,0 -8.908,-23.97 5.406,0 4.76,13.974 z" /><path
               id="path3679"
               style=""
               d="m 299.03001,-23.8 4.658,0 0,23.8 -4.658,0 0,-23.8 z" /><path
               id="path3681"
               style=""
               d="m 308.24401,-23.8 14.11,0 0,4.148 -9.452,0 0,5.542 8.602,0 0,4.148 -8.602,0 0,5.814 9.622,0 0,4.148 -14.28,0 0,-23.8 z" /><path
               id="path3683"
               style=""
               d="m 331.874,-12.41 -1.87,-3.74 -0.17,0 0.544,3.74 0,12.41 -4.42,0 0,-23.97 3.4,0 9.01,12.682 1.802,3.638 0.17,0 -0.544,-3.638 0,-12.512 4.42,0 0,23.97 -3.4,0 -8.942,-12.58 z" /><path
               id="path3685"
               style=""
               d="m 354.17798,-12.41 -1.87,-3.74 -0.17,0 0.544,3.74 0,12.41 -4.42,0 0,-23.97 3.4,0 9.01,12.682 1.802,3.638 0.17,0 -0.544,-3.638 0,-12.512 4.42,0 0,23.97 -3.4,0 -8.942,-12.58 z" /><path
               id="path3687"
               style=""
               d="m 382.296,-5.27 -7.31,0 -1.802,5.27 -4.658,0 8.568,-23.97 3.434,0 8.568,23.97 -4.896,0 -1.904,-5.27 z m -6.12,-3.74 5.1,0 -1.768,-5.304 -0.714,-3.74 -0.17,0 -0.714,3.774 -1.734,5.27 z" /><path
               id="path3689"
               style=""
               d="m 414.66401,-6.97 -3.026,0 -1.224,5.236 -3.638,0 1.224,-5.236 -2.516,0 0.748,-3.298 2.55,0 0.85,-3.604 -2.448,0 0.748,-3.298 2.482,0 1.19,-4.896 3.604,0 -1.156,4.896 3.026,0 1.19,-4.896 3.604,0 -1.156,4.896 2.448,0 -0.85,3.298 -2.38,0 -0.85,3.604 2.346,0 -0.816,3.298 -2.312,0 -1.224,5.236 -3.638,0 1.224,-5.236 z m -2.244,-3.298 3.026,0 0.85,-3.604 -3.026,0 -0.85,3.604 z" /><path
               id="path3691"
               style=""
               d="m 432.344,-10.506 0.442,4.216 0.136,0 0.476,-4.284 4.148,-13.226 3.06,0 4.08,13.294 0.476,4.216 0.136,0 0.51,-4.284 2.89,-13.226 4.726,0 -6.562,23.97 -3.128,0 -4.25,-13.226 -0.578,-3.638 -0.17,0 -0.578,3.672 -4.216,13.192 -3.298,0 -6.528,-23.97 5.066,0 3.162,13.294 z" /><path
               id="path3693"
               style=""
               d="m 471.47801,-18.258 q 0,0.884 -0.238,1.768 -0.204,0.884 -0.714,1.632 -0.51,0.714 -1.326,1.292 -0.816,0.544 -1.972,0.816 l 0,0.204 q 1.02,0.17 1.938,0.578 0.918,0.408 1.598,1.122 0.68,0.714 1.054,1.734 0.408,1.02 0.408,2.414 0,1.836 -0.782,3.196 -0.782,1.326 -2.108,2.176 -1.292,0.85 -2.958,1.258 -1.666,0.408 -3.434,0.408 -0.578,0 -1.496,0 -0.884,0 -1.938,-0.068 -1.02,-0.034 -2.108,-0.136 -1.054,-0.102 -1.938,-0.306 l 0,-23.46 q 0.646,-0.102 1.462,-0.204 0.85,-0.102 1.802,-0.17 0.952,-0.068 1.938,-0.102 1.02,-0.034 2.006,-0.034 1.666,0 3.23,0.272 1.598,0.238 2.822,0.884 1.258,0.646 2.006,1.802 0.748,1.156 0.748,2.924 z m -8.5,14.756 q 0.85,0 1.632,-0.204 0.816,-0.204 1.428,-0.612 0.612,-0.442 0.986,-1.088 0.374,-0.646 0.374,-1.53 0,-1.122 -0.442,-1.768 -0.442,-0.646 -1.156,-0.986 -0.714,-0.374 -1.598,-0.476 -0.884,-0.102 -1.768,-0.102 l -2.482,0 0,6.562 q 0.17,0.068 0.544,0.102 0.374,0.034 0.782,0.068 0.442,0 0.884,0.034 0.476,0 0.816,0 z m -1.53,-10.302 q 0.476,0 1.088,-0.034 0.646,-0.034 1.054,-0.102 1.292,-0.408 2.21,-1.224 0.952,-0.816 0.952,-2.142 0,-0.884 -0.34,-1.462 -0.34,-0.578 -0.918,-0.918 -0.544,-0.34 -1.258,-0.476 -0.714,-0.136 -1.496,-0.136 -0.884,0 -1.632,0.034 -0.748,0.034 -1.156,0.102 l 0,6.358 1.496,0 z" /><path
               id="path3695"
               style=""
               d="m 494.02001,-12.342 0.51,-4.726 -0.204,0 -1.462,3.808 -5.066,8.874 -1.496,0 -5.338,-8.908 -1.496,-3.774 -0.17,0 0.68,4.692 0,12.376 -4.42,0 0,-23.8 4.25,0 6.358,10.88 1.122,2.72 0.136,0 1.02,-2.788 6.018,-10.812 4.216,0 0,23.8 -4.658,0 0,-12.342 z" /><path
               id="path3697"
               style=""
               d="m 504.15199,-3.74 4.726,0 0,-13.43 0.51,-2.312 -1.632,2.006 -3.026,2.074 -1.87,-2.55 7.752,-6.256 2.482,0 0,20.468 4.624,0 0,3.74 -13.566,0 0,-3.74 z" /><path
               id="path3699"
               style=""
               d="m 521.35597,-11.934 q 0,-6.256 2.142,-9.282 2.142,-3.06 6.154,-3.06 4.284,0 6.29,3.026 2.006,2.992 2.006,9.316 0,6.29 -2.176,9.35 -2.142,3.06 -6.154,3.06 -4.25,0 -6.256,-3.196 -2.006,-3.23 -2.006,-9.214 z m 4.42,0 q 0,4.148 0.884,6.426 0.918,2.244 2.992,2.244 2.006,0 2.924,-2.074 0.952,-2.074 0.952,-6.596 0,-4.114 -0.884,-6.358 -0.884,-2.244 -3.026,-2.244 -2.04,0 -2.958,2.108 -0.884,2.108 -0.884,6.494 z" /></g></g></g></g></g></svg>