<?xml version="1.0" encoding="UTF-8" standalone="no"?>
<!-- Created with Inkscape (http://www.inkscape.org/) -->

<svg
   xmlns:dc="http://purl.org/dc/elements/1.1/"
   xmlns:cc="http://creativecommons.org/ns#"
   xmlns:rdf="http://www.w3.org/1999/02/22-rdf-syntax-ns#"
   xmlns:svg="http://www.w3.org/2000/svg"
   xmlns="http://www.w3.org/2000/svg"
   xmlns:sodipodi="http://sodipodi.sourceforge.net/DTD/sodipodi-0.dtd"
   xmlns:inkscape="http://www.inkscape.org/namespaces/inkscape"
   sodipodi:docname="wbm-themed.svg"
   inkscape:version="0.91 r13725"
   version="1.1"
   id="svg2"
   viewBox="0 0 1052.3622 744.09448"
   height="210mm"
   width="297mm">
  <sodipodi:namedview
     inkscape:guide-bbox="true"
     showguides="true"
     inkscape:window-maximized="1"
     inkscape:window-y="1"
     inkscape:window-x="0"
     inkscape:window-height="851"
     inkscape:window-width="1440"
     showgrid="false"
     inkscape:current-layer="layer1"
     inkscape:document-units="px"
     inkscape:cy="354.09802"
     inkscape:cx="483.37917"
     inkscape:zoom="0.65716085"
     inkscape:pageshadow="2"
     inkscape:pageopacity="0.0"
     borderopacity="1.0"
     bordercolor="#666666"
     pagecolor="#ffffff"
     id="base" />
  <defs
     id="defs4">
    <clipPath
       clipPathUnits="userSpaceOnUse"
       id="presentation_clip_path">
      <rect
         id="rect3821"
         height="21000"
         width="29700"
         y="0"
         x="0" />
    </clipPath>
    <clipPath
       clipPathUnits="userSpaceOnUse"
       id="presentation_clip_path-9">
      <rect
         id="rect4161"
         height="29700"
         width="21000"
         y="0"
         x="0" />
    </clipPath>
  </defs>
  <metadata
     id="metadata7">
    <rdf:RDF>
      <cc:Work
         rdf:about="">
        <dc:format>image/svg+xml</dc:format>
        <dc:type
           rdf:resource="http://purl.org/dc/dcmitype/StillImage" />
        <dc:title></dc:title>
      </cc:Work>
    </rdf:RDF>
  </metadata>
  <g
     inkscape:label="Layer 1"
     inkscape:groupmode="layer"
     id="layer1"
     transform="translate(0,-308.26772)">
    <g
       style="fill:#4d4d4d;fill-rule:evenodd;stroke-width:28.22200012;stroke-linejoin:round"
       id="g3858"
       transform="matrix(0.02615814,0,0,0.02615814,59.34627,427.34509)">
      <g
         style="fill:#4d4d4d"
         id="id2"
         class="Master_Slide">
        <g
           style="fill:#4d4d4d"
           id="bg-id2"
           class="Background" />
        <g
           style="fill:#4d4d4d"
           id="bo-id2"
           class="BackgroundObjects" />
      </g>
    </g>
    <path
       style="fill:#4d4d4d;fill-rule:evenodd;stroke:none;stroke-width:28.22200012;stroke-linejoin:round"
       inkscape:connector-curvature="0"
       d="m 749.18874,605.69129 8.86756,12.3728 10.2802,71.77793 0.2354,29.95108 13.5499,159.22459 -28.98318,18.9385 -61.23621,-16.81969 -112.34921,42.84704 -72.3011,-38.871 0,-91.7366 7.03654,-6.98422 0.94169,-56.50158 5.17932,-12.03275 5.25778,-21.08346 -0.3139,-10.17551 9.12919,-30.81429 7.35044,29.63717 0.88938,9.86162 2.35423,17.9968 11.11721,-39.52495 0,-12.86981 10.96026,-36.96145 11.77116,39.62958 1.64797,11.0649 107.85001,40.25737 13.75918,19.17392 1.38638,-39.28952 3.29593,-22.67911 2.79892,-49.56968 10.04472,-12.63438 7.61202,-109.68108 9.44309,-2.66813 12.42512,108.16391 z"
       id="path3875" />
    <path
       style="fill:#4d4d4d;fill-rule:evenodd;stroke:#4d4d4d;stroke-width:5.54552555;stroke-linejoin:round"
       inkscape:connector-curvature="0"
       d="m 749.18874,605.69129 8.86756,12.3728 10.2802,71.77793 0.2354,29.95108 13.5499,159.22459 -28.98318,18.9385 -61.23621,-16.81969 -112.34921,42.84704 -72.3011,-38.871 0,-91.7366 7.03654,-6.98422 0.94169,-56.50158 5.17932,-12.03275 5.25778,-21.08346 -0.3139,-10.17551 9.12919,-30.81429 7.35044,29.63717 0.88938,9.86162 2.35423,17.9968 11.11721,-39.52495 0,-12.86981 10.96026,-36.96145 11.77116,39.62958 1.64797,11.0649 107.85001,40.25737 13.75918,19.17392 1.38638,-39.28952 3.29593,-22.67911 2.79892,-49.56968 10.04472,-12.63438 7.61202,-109.68108 9.44309,-2.66813 12.42512,108.16391 z"
       id="path3877" />
    <g
       id="Layer_2"
       transform="translate(881.5901,-953.7886)" />
    <path
       id="path216"
       d="m 473.15117,752.03899 c 7.30857,-2.36238 14.10039,-1.03353 19.93249,4.35563 -3.24826,-0.88588 -8.12065,-0.5906 -11.22126,0.73824 -5.97974,2.51002 -8.12064,8.9327 -6.42269,14.7648 1.47647,5.16769 7.53007,8.26831 13.80511,7.16095 0.95971,-0.14762 2.21471,-1.40266 2.06707,-2.58384 -0.14762,-1.47649 -1.62413,-0.51678 -2.43621,-0.44295 -5.09385,0.44295 -7.82534,-0.73824 -9.44946,-4.2818 -1.62413,-3.46973 -0.81208,-8.04681 1.77176,-10.40918 5.31533,-4.87241 14.76482,-2.95298 17.79161,3.6912 1.03355,2.28854 1.40266,4.79855 1.55032,7.23475 0.59058,9.30183 -0.2953,13.2145 4.57708,17.57014 0.14762,4.57708 -0.14762,9.08035 -1.77177,13.06686 -0.51677,-1.91943 -1.18118,-3.10062 -1.10737,-3.10062 -2.36238,-2.51001 -5.97974,-5.46297 -11.66421,-6.86563 -3.02678,-0.73824 -5.90593,-0.36913 -8.93271,-0.0738 -10.55685,0.88588 -20.22779,-6.05358 -22.29486,-15.87218 -2.36237,-11.22126 3.32207,-21.55663 13.8051,-24.95255 z"
       class="st30"
       inkscape:connector-curvature="0"
       style="clip-rule:evenodd;fill:#4d4d4d;fill-rule:evenodd" />
    <g
       id="g4434"
       transform="matrix(0.73824081,0,0,0.73824081,56.13148,156.09422)"
       style="fill:#4d4d4d">
      <path
         style="clip-rule:evenodd;fill:#4d4d4d;fill-rule:evenodd"
         inkscape:connector-curvature="0"
         class="st30"
         d="m 964.55808,421.57214 c -0.9,-1 -3.1,-0.5 -5.2,0.8 -0.7,0.4 -0.5,0.3 -0.7,0.4 -1.4,1 -4.2,1.4 -2.6,3.6 1.8,3.5 3.7,6.8 5.2,10.2 1.5,3.3 2.2,6.8 1.8,10.5 -0.5,5.1 -3.6,7 -8.4,6.4 -4,-0.5 -7.7,-2.1 -11.2,-4 -13,-7.3 -22.8,-17.6 -28.7,-31.3 -1.4,-3.2 -2.5,-6.5 -2.8,-10 -0.1,-1.3 -0.1,-2.7 0.1,-4 0.5,-3.5 2.7,-5.2 6.2,-4.5 2.4,0.5 4.9,1.2 7.2,2.1 5.1,2.1 8.1,3.7 12.4,7 0.7,0.6 1.2,0.7 2.1,0.1 1.8,-1.1 0.1,-0.4 3.7,-3.4 0.5,-0.4 1.1,-2 1.4,-2.7 0.6,-1.2 -1.4,-2.8 -2.4,-3.5 -3.4,-2.3 -5.2,-3.4 -8.6,-5.6 -4.5,-2.9 -9.5,-4.4 -14.7,-4.7 -7.5,-0.4 -13.2,2.9 -17.1,9.2 -3.4,5.5 -5.1,11.6 -5.7,17.9 -0.9,9.3 0.5,18.4 3.9,27.1 3.2,8.2 8.1,15.1 15.5,20.1 5.7,3.8 12.1,6 18.9,6.9 7.8,1 15.3,0.1 22.7,-2.8 4.5,-1.8 8.5,-4.3 11.8,-7.8 4,-4.2 5.3,-9.3 4.8,-14.9 -1,-8.6 -5,-16.1 -9.6,-23.1 z"
         id="path174" />
      <path
         style="clip-rule:evenodd;fill:#4d4d4d;fill-rule:evenodd"
         inkscape:connector-curvature="0"
         class="st30"
         d="m 961.95808,407.37214 c 4.3,1.6 7.8,0.6 9.8,-2.6 1.8,-2.9 1.4,-6.7 -1.1,-9.2 -2.5,-2.5 -6.4,-2.8 -9.3,-0.8 -3.2,2.2 -3.9,5.7 -2.1,10.1 -1.2,0.8 -2.4,1.7 -3.7,2.5 -4.9,3.4 -9.8,6.7 -14.8,10.1 -1.3,0.9 -1.6,1.6 -1.2,3.2 1,3.1 3,5.2 6.2,6.1 1.4,0.4 2.2,0 3.1,-1.2 4.1,-5.8 8.2,-11.5 12.4,-17.3 0.2,-0.3 0.5,-0.5 0.7,-0.9 z"
         id="path176" />
    </g>
    <g
       id="g4448"
       transform="matrix(0.73824081,0,0,0.73824081,447.18816,254.38571)">
      <path
         inkscape:connector-curvature="0"
         class="st31"
         d="m -228.79858,740.88892 c 0.3,-2 7,-1.3 7,0.4 -0.1,2.8 -0.3,5.5 -0.2,8.2 0.1,2.6 0.7,5 2.1,7.3 1.9,3.1 4.4,3.4 7.4,1.5 2.4,-1.5 4.3,-3.7 5.9,-6 6,-8.7 9.1,-18.3 8.6,-28.9 -0.1,-2.5 -0.4,-4.9 -1.3,-7.3 -0.3,-0.9 -0.8,-1.8 -1.3,-2.5 -1.4,-2.1 -3.4,-2.5 -5.4,-1 -1.4,1.1 -2.8,2.3 -3.9,3.6 -2.6,2.9 -4.5,6.2 -6.2,9.7 -0.3,0.6 -0.6,0.8 -1.3,0.7 -2.7,0.2 -4.9,-1.5 -5,-2.4 -0.8,-0.6 -0.1,-2.1 0.3,-2.8 1.4,-2.5 2.7,-5.1 4.2,-7.6 1.9,-3.2 4.7,-5.8 7.9,-7.6 4.7,-2.6 9.3,-2.2 13.8,0.6 3.9,2.4 6.9,5.8 9.2,9.7 3.5,5.7 5.4,11.9 5.9,18.5 0.5,6.2 -0.5,12.2 -3.7,17.6 -2.5,4.2 -5.8,7.6 -9.9,10.3 -4.7,3.1 -9.8,4.8 -15.3,5.3 -3.4,0.3 -6.8,-0.1 -10,-1.3 -3.8,-1.4 -6.3,-4.3 -7.7,-8 -2.1,-6.2 -1.9,-12.1 -1.1,-18 z"
         id="path166"
         style="clip-rule:evenodd;fill:#006f9c;fill-opacity:1;fill-rule:evenodd" />
      <path
         inkscape:connector-curvature="0"
         class="st31"
         d="m -228.69858,731.08892 c -2.3,2.3 -4.8,2.8 -7.1,1.4 -2.1,-1.3 -3,-3.9 -2.1,-6.2 0.8,-2.3 3.2,-3.8 5.7,-3.4 2.7,0.4 4.3,2.4 4.5,5.8 1,0.2 2.1,0.3 3.1,0.5 4.2,0.6 8.4,1.2 12.6,1.9 1.1,0.2 1.6,0.5 1.7,1.6 0.4,2.3 -0.3,4.2 -2,5.8 -0.8,0.7 -1.4,0.7 -2.3,0.2 -4.4,-2.4 -8.8,-4.8 -13.3,-7.2 -0.3,-0.2 -0.6,-0.3 -0.8,-0.4 z"
         id="path168"
         style="clip-rule:evenodd;fill:#006f9c;fill-opacity:1;fill-rule:evenodd" />
      <path
         inkscape:connector-curvature="0"
         class="st31"
         d="m -102.09858,561.88892 c -2.3,-1.8 -8.7,5.6 -7,7.3 2.9,2.9 5.7,5.6 8.3,8.5 2.4,2.8 4.2,6.1 4.9,9.8 1,5.2 -1.4,8 -6.4,8.9 -4.1,0.8 -8.2,0.3 -12.2,-0.6 -15,-3.3 -27.8,-10.5 -37.8,-22.3 -2.3,-2.7 -4.4,-5.7 -5.8,-9 -0.5,-1.3 -0.9,-2.6 -1.1,-4 -0.6,-3.6 1.1,-6 4.8,-6.3 2.6,-0.3 5.2,-0.3 7.7,-0.1 5.6,0.5 11,2.2 16.2,4.1 0.9,0.3 1.4,0.3 2.1,-0.5 3.1,-2.5 3.8,-6.4 2.9,-7.5 0.2,-1.4 -1.9,-2.3 -3.2,-2.7 -4,-1.3 -8,-2.8 -12.1,-3.9 -5.3,-1.5 -10.7,-1.5 -16,-0.2 -7.6,1.9 -12.1,6.8 -14.1,14.3 -1.7,6.5 -1.6,13 -0.2,19.5 2,9.5 6,18 12,25.6 5.7,7.1 12.6,12.5 21.4,15.1 6.8,2.1 13.7,2.3 20.7,1.1 8,-1.4 15.2,-4.5 21.5,-9.6 3.9,-3.1 7.1,-6.8 9.3,-11.3 2.7,-5.3 2.4,-10.8 0.3,-16.1 -3.2,-8.5 -9.4,-14.7 -16.2,-20.1 z"
         id="path170"
         style="clip-rule:evenodd;fill:#0a70a0;fill-opacity:1;fill-rule:evenodd" />
      <path
         inkscape:connector-curvature="0"
         class="st31"
         d="m -111.79858,551.48892 c 4.8,0.2 7.9,-1.8 8.9,-5.6 0.9,-3.4 -0.7,-7.1 -3.9,-8.7 -3.2,-1.7 -7.1,-0.8 -9.4,2 -2.5,3.1 -2.2,6.8 1,10.6 -0.9,1.2 -1.9,2.4 -2.8,3.6 -3.8,4.8 -7.7,9.6 -11.5,14.4 -1,1.3 -1.1,2.1 -0.2,3.5 1.9,2.8 4.6,4.2 7.9,4.1 1.6,0 2.2,-0.6 2.7,-2.1 2.3,-6.9 4.7,-13.9 7,-20.8 0,-0.2 0.2,-0.6 0.3,-1 z"
         id="path172"
         style="clip-rule:evenodd;fill:#006f9c;fill-opacity:1;fill-rule:evenodd" />
      <path
         inkscape:connector-curvature="0"
         class="st31"
         d="m -96.29858,689.38892 c 0,-4.3 0.3,-8.7 1.8,-12.7 4.3,-11.8 20.5,-16.4 30.4,-8.5 4.8,3.8 6.7,11.7 4.4,17.9 -2.4,6.3 -7,8.8 -15.9,8.6 -1.4,0 -4,-1.5 -4.2,1.1 -0.1,2 2.2,4 3.9,4.2 11.1,1.3 21.1,-4.9 23.1,-14.1 2.2,-10.4 -2.2,-21.2 -12.9,-24.8 -5.5,-1.9 -14.1,-1.7 -19.6,0.2 9.5,-10 21.1,-13.2 34.1,-10 18.7,4.6 29.7,21.8 27,41.3 -2.4,17.3 -18.4,30.5 -36.8,30.3 -5.2,-0.1 -10.3,-0.4 -15.4,1.2 -12.7,4 -18.9,8.1 -22.3,15.7 -1.2,-5.8 -3.7,-11.2 -6,-16.8 11,-9.5 8.4,-15.7 8.4,-33.6 z"
         id="path214"
         style="clip-rule:evenodd;fill:#006f9c;fill-opacity:1;fill-rule:evenodd" />
      <g
         transform="translate(-282.29858,446.68892)"
         id="g226">
        <path
           inkscape:connector-curvature="0"
           class="st33"
           d="m 81.1,394 c -3.3,0 -5.9,-2.6 -6,-5.9 C 75,384.8 77.7,382 81,382 l 10.1,-0.2 c -0.3,-0.6 -0.5,-1.3 -0.6,-2 -0.4,-2.8 1.3,-5.5 3.9,-6.5 l 72.9,-25.7 -67.8,-16.3 c -2.8,-0.7 -4.8,-3.3 -4.6,-6.2 0.2,-2.9 2.4,-5.3 5.3,-5.6 l 63.1,-7.5 -57.5,-36 c -2.1,-1.3 -3.2,-3.8 -2.7,-6.2 0.5,-2.4 2.4,-4.3 4.8,-4.8 l 37.4,-6.6 -29.6,-8.8 c -2.3,-0.7 -4,-2.7 -4.3,-5.1 -0.3,-2.4 0.9,-4.7 3,-5.9 l 38.2,-22 -27.9,-21.4 c -2.6,-2 -3.1,-5.8 -1.1,-8.4 2,-2.6 5.8,-3.1 8.4,-1.1 l 35,26.8 c 1.6,1.2 2.5,3.2 2.3,5.2 -0.1,2 -1.3,3.8 -3,4.8 L 132.4,242 173,254 c 2.7,0.8 4.4,3.3 4.3,6.1 -0.2,2.8 -2.2,5.1 -5,5.6 l -47.1,8.3 58.7,36.7 c 2.2,1.3 3.2,3.9 2.7,6.4 -0.6,2.5 -2.6,4.3 -5.1,4.6 l -46.7,5.5 54.9,13.2 c 2.6,0.6 4.5,2.9 4.6,5.5 0.1,2.7 -1.5,5.1 -4,6 l -64.3,23 71.8,4.6 c 3.2,0.2 5.7,2.9 5.6,6.1 -0.1,3.2 -2.7,5.8 -5.9,5.9 L 81.2,394 c 0,0 -0.1,0 -0.1,0 z"
           id="path228"
           style="fill:#0a70a0;fill-opacity:1" />
      </g>
      <path
         inkscape:connector-curvature="0"
         class="st31"
         d="m -61.29858,842.08892 c 0.3,-0.6 0.5,-1.3 0.5,-1.9 0,-0.2 0,-0.4 0,-0.5 0.1,-2.5 -0.8,-4.9 -0.8,-4.9 -7.5,-27.6 -44.4,-163 -44.6,-162.8 0.1,0.3 -18.1,-79.3 -18.1,-79.3 l -25.4,0 -68.8,245.3 c 0,0 -0.1,0.3 -0.1,0.7 -0.2,0.5 -0.3,1 -0.3,1.5 0,9.9 35.4,17.9 79,17.9 35.7,0 65.8,-5.4 75.6,-12.7 1.6,-0.8 2.5,-2 3,-3.3 z m -83.3,-223.4 9.3,1.3 40,199.1 c -8,1.6 -18.6,2.8 -30.3,3.4 -4.6,-0.2 -9.4,-0.3 -14.3,-0.3 -5.3,0 -10.5,0.1 -15.6,0.4 -9.2,-0.5 -18.2,-1.4 -26.5,-2.9 l 37.4,-201 z"
         id="path230"
         style="clip-rule:evenodd;fill:#006f9c;fill-opacity:1;fill-rule:evenodd" />
    </g>
    <polyline
       id="polyline232"
       points="256.2,19.6 240.6,49.8 224.4,11.2 208.9,51.1 194.3,37.1 179.3,81.7 198.7,54.1 212.5,69.8    225.7,40.5 240.7,73.2 258.8,38.3 277.3,45  "
       class="st30"
       style="clip-rule:evenodd;fill:#4d4d4d;fill-rule:evenodd"
       transform="matrix(1.2225096,0,0,0.73824081,153.85278,585.83712)" />
    <g
       transform="matrix(-0.73824081,0,0,0.73824081,1058.0555,166.21864)"
       id="g4425"
       style="fill:#4d4d4d">
      <path
         id="path4427"
         d="m 750.33203,632.91733 c -1.6,-0.3 -2.9,-0.6 -4.3,-0.8 -0.2,0 -0.5,0 -0.7,0.1 -1.1,0.7 -2.1,1.5 -3,2.1 0.5,3.3 1.1,6.3 1.3,9.4 0.3,3 -0.1,5.9 -1.4,8.7 -1.8,3.8 -4.7,4.5 -8.3,2.8 -3,-1.5 -5.5,-3.7 -7.7,-6.2 -8.2,-9.2 -13.1,-19.9 -14,-32.3 -0.2,-2.9 -0.2,-5.8 0.5,-8.6 0.3,-1.1 0.7,-2.2 1.2,-3.1 1.4,-2.6 3.6,-3.3 6.1,-1.9 1.8,1 3.5,2.2 5.1,3.6 3.4,3 6.1,6.6 8.6,10.3 0.4,0.7 0.8,0.8 1.6,0.7 1.7,-0.4 3.3,-0.8 3.7,-2.9 0.1,-0.6 0.5,-1.1 0.9,-1.5 0.8,-0.8 0.6,-1.5 0,-2.3 -2,-2.7 -3.9,-5.6 -6,-8.3 -2.7,-3.5 -6.2,-6 -10.3,-7.7 -5.8,-2.4 -11.1,-1.3 -15.9,2.6 -4.2,3.4 -7.2,7.7 -9.3,12.5 -3.2,7.1 -4.6,14.5 -4.3,22.3 0.3,7.3 2.2,14 6.7,19.9 3.5,4.5 7.8,8 12.9,10.5 5.8,2.9 12,4.2 18.5,4 4,-0.2 7.8,-1.1 11.4,-2.9 4.2,-2.2 6.7,-5.8 7.8,-10.3 1.8,-7.1 0.7,-13.9 -1.1,-20.7 z"
         class="st30"
         inkscape:connector-curvature="0"
         style="clip-rule:evenodd;fill:#4d4d4d;fill-rule:evenodd" />
      <path
         id="path4429"
         d="m 748.43203,622.21733 c 3,2.4 5.9,2.6 8.4,0.6 2.2,-1.8 2.9,-4.9 1.6,-7.5 -1.3,-2.6 -4.2,-3.9 -7.1,-3.1 -3.1,0.8 -4.6,3.4 -4.4,7.4 -1.2,0.3 -2.4,0.7 -3.6,1 -4.8,1.3 -9.5,2.6 -14.3,3.9 -1.3,0.3 -1.7,0.8 -1.8,2.2 -0.1,2.7 1,4.9 3.2,6.4 1,0.7 1.7,0.6 2.7,-0.1 4.8,-3.4 9.6,-6.8 14.4,-10.2 0.3,-0.2 0.6,-0.4 0.9,-0.6 z"
         class="st30"
         inkscape:connector-curvature="0"
         style="clip-rule:evenodd;fill:#4d4d4d;fill-rule:evenodd" />
    </g>
    <g
       style="fill-rule:evenodd;stroke-width:28.22200012;stroke-linejoin:round"
       id="g4305"
       transform="matrix(0.03543307,0,0,0.03543307,-446.78541,163.8856)">
      <g
         id="id2-4"
         class="Master_Slide">
        <g
           id="bg-id2-5"
           class="Background" />
        <g
           id="bo-id2-5"
           class="BackgroundObjects" />
      </g>
    </g>
    <g
       style="fill:none;fill-rule:evenodd;stroke:#000000;stroke-width:28.22200012;stroke-linejoin:round"
       id="g4481"
       transform="matrix(0.03543307,0,0,0.03543307,-852.00648,1114.0453)">
      <g
         style="fill:none;stroke:#000000"
         id="g4483"
         class="Master_Slide">
        <g
           style="fill:none;stroke:#000000"
           id="g4485"
           class="Background" />
        <g
           style="fill:none;stroke:#000000"
           id="g4487"
           class="BackgroundObjects" />
      </g>
    </g>
    <g
       style="fill:#ffffff"
       id="g3490"
       transform="matrix(-0.73824081,0,0,0.73824081,1086.0555,312.21864)">
      <path
         style="clip-rule:evenodd;fill:#ffffff;fill-rule:evenodd"
         inkscape:connector-curvature="0"
         class="st30"
         d="m 750.33203,632.91733 c -1.6,-0.3 -2.9,-0.6 -4.3,-0.8 -0.2,0 -0.5,0 -0.7,0.1 -1.1,0.7 -2.1,1.5 -3,2.1 0.5,3.3 1.1,6.3 1.3,9.4 0.3,3 -0.1,5.9 -1.4,8.7 -1.8,3.8 -4.7,4.5 -8.3,2.8 -3,-1.5 -5.5,-3.7 -7.7,-6.2 -8.2,-9.2 -13.1,-19.9 -14,-32.3 -0.2,-2.9 -0.2,-5.8 0.5,-8.6 0.3,-1.1 0.7,-2.2 1.2,-3.1 1.4,-2.6 3.6,-3.3 6.1,-1.9 1.8,1 3.5,2.2 5.1,3.6 3.4,3 6.1,6.6 8.6,10.3 0.4,0.7 0.8,0.8 1.6,0.7 1.7,-0.4 3.3,-0.8 3.7,-2.9 0.1,-0.6 0.5,-1.1 0.9,-1.5 0.8,-0.8 0.6,-1.5 0,-2.3 -2,-2.7 -3.9,-5.6 -6,-8.3 -2.7,-3.5 -6.2,-6 -10.3,-7.7 -5.8,-2.4 -11.1,-1.3 -15.9,2.6 -4.2,3.4 -7.2,7.7 -9.3,12.5 -3.2,7.1 -4.6,14.5 -4.3,22.3 0.3,7.3 2.2,14 6.7,19.9 3.5,4.5 7.8,8 12.9,10.5 5.8,2.9 12,4.2 18.5,4 4,-0.2 7.8,-1.1 11.4,-2.9 4.2,-2.2 6.7,-5.8 7.8,-10.3 1.8,-7.1 0.7,-13.9 -1.1,-20.7 z"
         id="path3492" />
      <path
         style="clip-rule:evenodd;fill:#ffffff;fill-rule:evenodd"
         inkscape:connector-curvature="0"
         class="st30"
         d="m 748.43203,622.21733 c 3,2.4 5.9,2.6 8.4,0.6 2.2,-1.8 2.9,-4.9 1.6,-7.5 -1.3,-2.6 -4.2,-3.9 -7.1,-3.1 -3.1,0.8 -4.6,3.4 -4.4,7.4 -1.2,0.3 -2.4,0.7 -3.6,1 -4.8,1.3 -9.5,2.6 -14.3,3.9 -1.3,0.3 -1.7,0.8 -1.8,2.2 -0.1,2.7 1,4.9 3.2,6.4 1,0.7 1.7,0.6 2.7,-0.1 4.8,-3.4 9.6,-6.8 14.4,-10.2 0.3,-0.2 0.6,-0.4 0.9,-0.6 z"
         id="path3494" />
    </g>
    <text
       sodipodi:linespacing="125%"
       id="text3496"
       y="462.90964"
       x="311.30411"
       style="font-style:normal;font-variant:normal;font-weight:bold;font-stretch:normal;font-size:35.79999924px;line-height:125%;font-family:'PT Sans';-inkscape-font-specification:'PT Sans, Bold';text-align:start;letter-spacing:0px;word-spacing:0px;writing-mode:lr-tb;text-anchor:start;fill:#000000;fill-opacity:1;stroke:none;stroke-width:1px;stroke-linecap:butt;stroke-linejoin:miter;stroke-opacity:1"
       xml:space="preserve"><tspan
         y="462.90964"
         x="311.30411"
         id="tspan3498"
         sodipodi:role="line">BATTLEMESH v10</tspan><tspan
         id="tspan3500"
         y="507.65964"
         x="311.30411"
         sodipodi:role="line">JUNE 05-11 2017</tspan><tspan
         id="tspan3502"
         y="552.40961"
         x="311.30411"
         sodipodi:role="line">VIENNA, AUSTRIA</tspan></text>
  </g>
  <style
     id="style4"
     type="text/css">
	.st0{fill:#D1D1D1;}
	.st1{fill-rule:evenodd;clip-rule:evenodd;}
	.st2{fill-rule:evenodd;clip-rule:evenodd;fill:#010101;}
	.st3{fill-rule:evenodd;clip-rule:evenodd;fill:#050505;}
	.st4{fill-rule:evenodd;clip-rule:evenodd;fill:#B2B2B2;}
	.st5{fill-rule:evenodd;clip-rule:evenodd;fill:#FEFEFE;}
	.st6{fill-rule:evenodd;clip-rule:evenodd;fill:#FDFDFD;}
	.st7{fill-rule:evenodd;clip-rule:evenodd;fill:#F8F8F8;}
	.st8{fill-rule:evenodd;clip-rule:evenodd;fill:#221F20;}
	.st9{fill-rule:evenodd;clip-rule:evenodd;fill:#231F20;}
	.st10{fill-rule:evenodd;clip-rule:evenodd;fill:#1C1A1B;}
	.st11{fill-rule:evenodd;clip-rule:evenodd;fill:#232021;}
	.st12{fill-rule:evenodd;clip-rule:evenodd;fill:#252424;}
	.st13{fill-rule:evenodd;clip-rule:evenodd;fill:#1A1718;}
	.st14{fill-rule:evenodd;clip-rule:evenodd;fill:#0D0B0C;}
	.st15{fill-rule:evenodd;clip-rule:evenodd;fill:#202020;}
	.st16{fill-rule:evenodd;clip-rule:evenodd;fill:#1E1D1D;}
	.st17{fill-rule:evenodd;clip-rule:evenodd;fill:#181617;}
	.st18{fill-rule:evenodd;clip-rule:evenodd;fill:#151616;}
	.st19{fill-rule:evenodd;clip-rule:evenodd;fill:#0C090A;}
	.st20{fill-rule:evenodd;clip-rule:evenodd;fill:#2C2A2B;}
	.st21{fill-rule:evenodd;clip-rule:evenodd;fill:#0D0D0D;}
	.st22{fill-rule:evenodd;clip-rule:evenodd;fill:#0F0E0E;}
	.st23{fill-rule:evenodd;clip-rule:evenodd;fill:#1D1A1B;}
	.st24{fill-rule:evenodd;clip-rule:evenodd;fill:#110E0F;}
	.st25{fill-rule:evenodd;clip-rule:evenodd;fill:#232223;}
	.st26{fill-rule:evenodd;clip-rule:evenodd;fill:#161415;}
	.st27{fill-rule:evenodd;clip-rule:evenodd;fill:#121011;}
	.st28{fill-rule:evenodd;clip-rule:evenodd;fill:#252323;}
	.st29{fill-rule:evenodd;clip-rule:evenodd;fill:#FFFFFF;}
	.st30{fill-rule:evenodd;clip-rule:evenodd;fill:#3F3F3F;}
	.st31{fill-rule:evenodd;clip-rule:evenodd;fill:#96BC0C;}
	.st32{fill:#3F3F3F;}
	.st33{fill:#96BC0C;}
</style>
</svg>
