<?xml version="1.0" encoding="UTF-8"?>
<!DOCTYPE svg PUBLIC "-//W3C//DTD SVG 1.1//EN" "http://www.w3.org/Graphics/SVG/1.1/DTD/svg11.dtd">
<svg version="1.2" width="56mm" height="75mm" viewBox="0 0 5600 7500" preserveAspectRatio="xMidYMid" fill-rule="evenodd" stroke-width="28.222" stroke-linejoin="round" xmlns="http://www.w3.org/2000/svg" xmlns:ooo="http://xml.openoffice.org/svg/export" xmlns:xlink="http://www.w3.org/1999/xlink" xmlns:presentation="http://sun.com/xmlns/staroffice/presentation" xmlns:smil="http://www.w3.org/2001/SMIL20/" xmlns:anim="urn:oasis:names:tc:opendocument:xmlns:animation:1.0" xml:space="preserve">
 <defs class="ClipPathGroup">
  <clipPath id="presentation_clip_path" clipPathUnits="userSpaceOnUse">
   <rect x="0" y="0" width="5600" height="7500"/>
  </clipPath>
 </defs>
 <defs class="TextShapeIndex">
  <g ooo:slide="id1" ooo:id-list="id3 id4 id5 id6 id7 id8 id9 id10 id11 id12 id13 id14 id15 id16 id17 id18 id19 id20 id21 id22 id23 id24 id25 id26 id27 id28 id29 id30 id31 id32 id33 id34 id35 id36 id37 id38 id39"/>
 </defs>
 <defs class="EmbeddedBulletChars">
  <g id="bullet-char-template(57356)" transform="scale(0.00048828125,-0.00048828125)">
   <path d="M 580,1141 L 1163,571 580,0 -4,571 580,1141 Z"/>
  </g>
  <g id="bullet-char-template(57354)" transform="scale(0.00048828125,-0.00048828125)">
   <path d="M 8,1128 L 1137,1128 1137,0 8,0 8,1128 Z"/>
  </g>
  <g id="bullet-char-template(10146)" transform="scale(0.00048828125,-0.00048828125)">
   <path d="M 174,0 L 602,739 174,1481 1456,739 174,0 Z M 1358,739 L 309,1346 659,739 1358,739 Z"/>
  </g>
  <g id="bullet-char-template(10132)" transform="scale(0.00048828125,-0.00048828125)">
   <path d="M 2015,739 L 1276,0 717,0 1260,543 174,543 174,936 1260,936 717,1481 1274,1481 2015,739 Z"/>
  </g>
  <g id="bullet-char-template(10007)" transform="scale(0.00048828125,-0.00048828125)">
   <path d="M 0,-2 C -7,14 -16,27 -25,37 L 356,567 C 262,823 215,952 215,954 215,979 228,992 255,992 264,992 276,990 289,987 310,991 331,999 354,1012 L 381,999 492,748 772,1049 836,1024 860,1049 C 881,1039 901,1025 922,1006 886,937 835,863 770,784 769,783 710,716 594,584 L 774,223 C 774,196 753,168 711,139 L 727,119 C 717,90 699,76 672,76 641,76 570,178 457,381 L 164,-76 C 142,-110 111,-127 72,-127 30,-127 9,-110 8,-76 1,-67 -2,-52 -2,-32 -2,-23 -1,-13 0,-2 Z"/>
  </g>
  <g id="bullet-char-template(10004)" transform="scale(0.00048828125,-0.00048828125)">
   <path d="M 285,-33 C 182,-33 111,30 74,156 52,228 41,333 41,471 41,549 55,616 82,672 116,743 169,778 240,778 293,778 328,747 346,684 L 369,508 C 377,444 397,411 428,410 L 1163,1116 C 1174,1127 1196,1133 1229,1133 1271,1133 1292,1118 1292,1087 L 1292,965 C 1292,929 1282,901 1262,881 L 442,47 C 390,-6 338,-33 285,-33 Z"/>
  </g>
  <g id="bullet-char-template(9679)" transform="scale(0.00048828125,-0.00048828125)">
   <path d="M 813,0 C 632,0 489,54 383,161 276,268 223,411 223,592 223,773 276,916 383,1023 489,1130 632,1184 813,1184 992,1184 1136,1130 1245,1023 1353,916 1407,772 1407,592 1407,412 1353,268 1245,161 1136,54 992,0 813,0 Z"/>
  </g>
  <g id="bullet-char-template(8226)" transform="scale(0.00048828125,-0.00048828125)">
   <path d="M 346,457 C 273,457 209,483 155,535 101,586 74,649 74,723 74,796 101,859 155,911 209,963 273,989 346,989 419,989 480,963 531,910 582,859 608,796 608,723 608,648 583,586 532,535 482,483 420,457 346,457 Z"/>
  </g>
  <g id="bullet-char-template(8211)" transform="scale(0.00048828125,-0.00048828125)">
   <path d="M -4,459 L 1135,459 1135,606 -4,606 -4,459 Z"/>
  </g>
 </defs>
 <defs class="TextEmbeddedBitmaps"/>
 <g>
  <g id="id2" class="Master_Slide">
   <g id="bg-id2" class="Background"/>
   <g id="bo-id2" class="BackgroundObjects"/>
  </g>
 </g>
 <g class="SlideGroup">
  <g>
   <g id="id1" class="Slide" clip-path="url(#presentation_clip_path)">
    <g class="Page">
     <g class="com.sun.star.drawing.CustomShape">
      <g id="id3">
       <rect class="BoundingBox" stroke="none" fill="none" x="-1" y="-1" width="5603" height="7603"/>
       <path fill="rgb(0,0,0)" stroke="none" d="M 2800,7600 L 0,7600 0,0 5600,0 5600,7600 2800,7600 Z"/>
       <path fill="none" stroke="rgb(52,101,164)" d="M 2800,7600 L 0,7600 0,0 5600,0 5600,7600 2800,7600 Z"/>
      </g>
     </g>
     <g class="com.sun.star.drawing.PolyPolygonShape">
      <g id="id4">
       <rect class="BoundingBox" stroke="none" fill="none" x="1882" y="4905" width="1761" height="1889"/>
       <path fill="rgb(39,49,66)" stroke="none" d="M 3642,4905 L 3592,6140 1884,6793 1883,4905 3642,4905 Z"/>
      </g>
     </g>
     <g class="com.sun.star.drawing.PolyPolygonShape">
      <g id="id5">
       <rect class="BoundingBox" stroke="none" fill="none" x="1889" y="3289" width="2322" height="1670"/>
       <path fill="rgb(105,145,170)" stroke="none" d="M 1890,4958 L 1899,3289 3415,3855 4210,4958 1890,4958 Z"/>
      </g>
     </g>
     <g class="Group">
      <g class="com.sun.star.drawing.ClosedBezierShape">
       <g id="id6">
        <rect class="BoundingBox" stroke="none" fill="none" x="1983" y="5159" width="369" height="1407"/>
        <path fill="rgb(255,255,255)" stroke="none" d="M 2121,5873 C 2133,5818 2140,5777 2144,5750 2147,5722 2149,5697 2149,5674 2149,5631 2143,5599 2131,5577 2120,5555 2103,5545 2081,5548 2076,5548 2072,5548 2068,5550 2065,5551 2061,5553 2058,5554 2054,5556 2050,5557 2047,5557 L 2047,5179 C 2055,5176 2062,5172 2068,5169 2074,5167 2080,5165 2085,5164 2091,5162 2097,5161 2104,5160 2110,5159 2117,5159 2125,5159 2152,5159 2178,5166 2204,5179 2230,5193 2252,5215 2273,5245 2293,5275 2310,5315 2323,5365 2335,5414 2342,5475 2342,5548 2342,5582 2340,5616 2337,5650 2333,5684 2328,5721 2321,5761 2314,5802 2306,5847 2295,5898 2284,5949 2271,6009 2257,6079 L 2247,6129 2351,6101 2304,6448 1983,6564 2121,5873 Z"/>
       </g>
      </g>
      <g class="com.sun.star.drawing.ClosedBezierShape">
       <g id="id7">
        <rect class="BoundingBox" stroke="none" fill="none" x="2363" y="5147" width="446" height="1238"/>
        <path fill="rgb(255,255,255)" stroke="none" d="M 2808,5719 C 2808,5905 2788,6051 2749,6163 2710,6276 2656,6348 2585,6375 2515,6401 2461,6367 2422,6270 2382,6172 2363,6014 2363,5802 2363,5589 2382,5425 2422,5312 2461,5200 2516,5147 2585,5147 2656,5147 2710,5199 2749,5297 2788,5395 2808,5534 2808,5719 Z M 2639,5750 C 2639,5570 2621,5481 2585,5485 2550,5489 2532,5584 2532,5770 2532,5957 2550,6046 2585,6036 2621,6026 2639,5931 2639,5750 Z"/>
       </g>
      </g>
      <g class="com.sun.star.drawing.ClosedBezierShape">
       <g id="id8">
        <rect class="BoundingBox" stroke="none" fill="none" x="2795" y="5171" width="255" height="1073"/>
        <path fill="rgb(255,255,255)" stroke="none" d="M 2870,5589 C 2845,5536 2821,5482 2796,5428 2836,5340 2876,5255 2917,5172 2961,5172 3005,5171 3049,5171 3049,5506 3049,5842 3049,6177 2989,6198 2930,6220 2870,6242 L 2870,5589 Z"/>
       </g>
      </g>
      <g class="com.sun.star.drawing.ClosedBezierShape">
       <g id="id9">
        <rect class="BoundingBox" stroke="none" fill="none" x="3065" y="5167" width="405" height="1005"/>
        <path fill="rgb(255,255,255)" stroke="none" d="M 3222,5433 C 3172,5438 3121,5444 3071,5449 3091,5354 3112,5262 3132,5170 3244,5169 3357,5168 3469,5167 3396,5462 3324,5774 3251,6103 3189,6126 3127,6148 3065,6171 L 3222,5433 Z"/>
       </g>
      </g>
     </g>
     <g class="Group">
      <g class="com.sun.star.drawing.ClosedBezierShape">
       <g id="id10">
        <rect class="BoundingBox" stroke="none" fill="none" x="1895" y="3376" width="417" height="750"/>
        <path fill="rgb(255,255,255)" stroke="none" d="M 2021,3924 L 2077,3937 C 2093,3941 2102,3939 2104,3931 2106,3924 2104,3913 2098,3897 L 1895,3377 2061,3436 2280,3976 C 2309,4040 2317,4081 2306,4102 2296,4124 2268,4130 2220,4121 L 2091,4095 2021,3924 Z"/>
       </g>
      </g>
      <g class="com.sun.star.drawing.ClosedBezierShape">
       <g id="id11">
        <rect class="BoundingBox" stroke="none" fill="none" x="2110" y="3453" width="646" height="767"/>
        <path fill="rgb(255,255,255)" stroke="none" d="M 2621,4213 C 2589,4207 2558,4196 2528,4181 2497,4165 2467,4145 2440,4121 2412,4096 2386,4067 2362,4031 2338,3996 2316,3956 2297,3911 L 2110,3453 2272,3511 2455,3943 C 2465,3966 2476,3985 2489,3999 2501,4012 2516,4021 2534,4026 2551,4030 2560,4026 2563,4017 2565,4007 2560,3990 2550,3967 L 2368,3545 2530,3603 2716,4017 C 2736,4058 2748,4092 2752,4120 2756,4147 2755,4169 2745,4184 2737,4199 2722,4210 2700,4214 2679,4219 2653,4219 2621,4213 Z"/>
       </g>
      </g>
      <g class="com.sun.star.drawing.ClosedBezierShape">
       <g id="id12">
        <rect class="BoundingBox" stroke="none" fill="none" x="2581" y="3621" width="727" height="712"/>
        <path fill="rgb(255,255,255)" stroke="none" d="M 2581,3622 C 2625,3638 2670,3654 2714,3669 2798,3768 2883,3863 2967,3955 2929,3878 2892,3799 2853,3719 2907,3738 2960,3757 3012,3776 3111,3972 3208,4157 3306,4332 3262,4323 3217,4314 3173,4306 3088,4227 3005,4146 2920,4060 2958,4134 2996,4208 3033,4279 2980,4268 2928,4258 2875,4248 L 2581,3622 Z"/>
       </g>
      </g>
      <g class="com.sun.star.drawing.ClosedBezierShape">
       <g id="id13">
        <rect class="BoundingBox" stroke="none" fill="none" x="3066" y="3794" width="598" height="608"/>
        <path fill="rgb(255,255,255)" stroke="none" d="M 3067,3795 C 3166,3831 3265,3866 3365,3902 3389,3949 3416,3996 3442,4042 3396,4027 3350,4013 3305,3999 3316,4019 3326,4039 3337,4058 3383,4072 3427,4085 3471,4098 3496,4140 3520,4182 3545,4223 3500,4211 3455,4199 3410,4188 3422,4208 3433,4227 3443,4246 3492,4258 3539,4269 3586,4280 3612,4321 3638,4362 3663,4401 3563,4382 3461,4362 3360,4342 L 3067,3795 Z"/>
       </g>
      </g>
      <g class="com.sun.star.drawing.ClosedBezierShape">
       <g id="id14">
        <rect class="BoundingBox" stroke="none" fill="none" x="2038" y="4202" width="537" height="670"/>
        <path fill="rgb(255,255,255)" stroke="none" d="M 2510,4568 C 2560,4670 2580,4743 2571,4793 2561,4845 2525,4870 2460,4870 2396,4870 2332,4844 2270,4787 2207,4730 2152,4647 2101,4533 2052,4420 2032,4331 2041,4274 2051,4217 2088,4194 2152,4205 2216,4216 2280,4255 2343,4319 2404,4382 2461,4466 2510,4568 Z M 2355,4555 C 2309,4457 2270,4403 2236,4398 2205,4395 2212,4446 2258,4547 2304,4648 2342,4695 2375,4697 2407,4699 2400,4653 2355,4555 Z"/>
       </g>
      </g>
      <g class="com.sun.star.drawing.ClosedBezierShape">
       <g id="id15">
        <rect class="BoundingBox" stroke="none" fill="none" x="2468" y="4273" width="411" height="597"/>
        <path fill="rgb(255,255,255)" stroke="none" d="M 2604,4708 C 2642,4710 2667,4704 2679,4690 2691,4675 2689,4655 2677,4630 2667,4612 2656,4597 2643,4586 2629,4574 2616,4565 2599,4557 2584,4550 2569,4545 2552,4541 2536,4537 2522,4535 2508,4534 L 2469,4274 2676,4308 2758,4472 2662,4460 C 2686,4475 2708,4492 2730,4511 2750,4528 2770,4548 2790,4571 2811,4594 2828,4619 2845,4649 2866,4688 2877,4721 2877,4749 2878,4777 2871,4799 2857,4817 2843,4834 2821,4847 2795,4856 2769,4865 2739,4869 2707,4869 2700,4869 2696,4869 2693,4868 2691,4868 2689,4868 2687,4867 L 2604,4708 Z"/>
       </g>
      </g>
      <g class="com.sun.star.drawing.ClosedBezierShape">
       <g id="id16">
        <rect class="BoundingBox" stroke="none" fill="none" x="2815" y="4528" width="276" height="151"/>
        <path fill="rgb(255,255,255)" stroke="none" d="M 2815,4529 C 2883,4536 2950,4543 3016,4550 3041,4594 3066,4637 3090,4678 3023,4674 2957,4670 2889,4665 L 2815,4529 Z"/>
       </g>
      </g>
      <g class="com.sun.star.drawing.ClosedBezierShape">
       <g id="id17">
        <rect class="BoundingBox" stroke="none" fill="none" x="2955" y="4362" width="461" height="500"/>
        <path fill="rgb(255,255,255)" stroke="none" d="M 3070,4563 C 3032,4533 2994,4503 2956,4472 2970,4435 2984,4398 2998,4362 3038,4369 3079,4375 3120,4382 3218,4552 3316,4711 3414,4860 3359,4860 3303,4859 3249,4859 L 3070,4563 Z"/>
       </g>
      </g>
      <g class="com.sun.star.drawing.ClosedBezierShape">
       <g id="id18">
        <rect class="BoundingBox" stroke="none" fill="none" x="3196" y="4402" width="459" height="461"/>
        <path fill="rgb(255,255,255)" stroke="none" d="M 3310,4587 C 3273,4560 3235,4532 3196,4503 3210,4469 3225,4435 3239,4402 3279,4409 3320,4415 3360,4422 3458,4579 3555,4725 3654,4861 3599,4861 3544,4860 3490,4860 L 3310,4587 Z"/>
       </g>
      </g>
     </g>
     <g class="com.sun.star.drawing.PolyPolygonShape">
      <g id="id19">
       <rect class="BoundingBox" stroke="none" fill="none" x="865" y="2583" width="1107" height="4218"/>
       <path fill="rgb(161,200,32)" stroke="none" d="M 1881,6800 L 865,6254 865,4965 964,4866 977,4072 1050,3903 1124,3607 1120,3464 1248,3031 1351,3448 1364,3586 1397,3839 1553,3283 1553,3102 1707,2583 1873,3140 1896,3295 1971,3770 1966,4828 1897,5035 1881,6800 Z"/>
      </g>
     </g>
     <g class="com.sun.star.drawing.PolyPolygonShape">
      <g id="id20">
       <rect class="BoundingBox" stroke="none" fill="none" x="3464" y="800" width="1269" height="5629"/>
       <path fill="rgb(242,58,20)" stroke="none" d="M 4269,2320 L 4394,2494 4538,3503 4542,3923 4732,6161 4325,6428 3464,6191 3609,4124 3628,3572 3674,3253 3714,2556 3855,2379 3962,837 4095,800 4269,2320 Z"/>
      </g>
     </g>
     <g class="Group">
      <g class="com.sun.star.drawing.ClosedBezierShape">
       <g id="id21">
        <rect class="BoundingBox" stroke="none" fill="none" x="3763" y="3570" width="441" height="475"/>
        <path fill="rgb(255,255,255)" stroke="none" d="M 3764,4043 C 3764,4004 3764,3966 3764,3927 3820,3888 3876,3849 3932,3810 3876,3773 3820,3736 3764,3699 3764,3660 3764,3621 3764,3583 3910,3578 4057,3574 4203,3570 4203,3618 4203,3666 4203,3714 4151,3715 4098,3716 4045,3717 4089,3747 4133,3776 4177,3806 4133,3838 4089,3869 4045,3900 4098,3900 4151,3899 4203,3899 4203,3947 4203,3995 4203,4043 L 3764,4043 Z"/>
       </g>
      </g>
      <g class="com.sun.star.drawing.ClosedBezierShape">
       <g id="id22">
        <rect class="BoundingBox" stroke="none" fill="none" x="3763" y="3250" width="441" height="288"/>
        <path fill="rgb(255,255,255)" stroke="none" d="M 3764,3537 C 3764,3451 3764,3364 3764,3278 3802,3276 3841,3275 3879,3272 3879,3312 3879,3352 3879,3392 3895,3391 3912,3390 3928,3390 3928,3351 3928,3311 3928,3272 3964,3270 4001,3268 4037,3266 4037,3306 4037,3346 4037,3385 4054,3384 4071,3384 4088,3383 4088,3341 4088,3299 4088,3257 4126,3255 4165,3253 4203,3251 4203,3342 4203,3432 4203,3522 L 3764,3537 Z"/>
       </g>
      </g>
      <g class="com.sun.star.drawing.ClosedBezierShape">
       <g id="id23">
        <rect class="BoundingBox" stroke="none" fill="none" x="3753" y="2950" width="463" height="299"/>
        <path fill="rgb(255,255,255)" stroke="none" d="M 4067,3236 C 4070,3226 4073,3216 4074,3205 4077,3196 4078,3185 4079,3174 4081,3162 4081,3151 4081,3139 4081,3119 4074,3109 4059,3110 4053,3110 4048,3113 4042,3120 4036,3127 4029,3135 4022,3145 4015,3155 4007,3166 3998,3177 3989,3188 3979,3199 3968,3209 3956,3220 3944,3228 3929,3235 3915,3242 3899,3246 3880,3247 3859,3248 3841,3245 3826,3239 3810,3232 3797,3222 3786,3209 3775,3197 3767,3182 3762,3165 3756,3147 3754,3128 3754,3108 3754,3097 3754,3087 3755,3076 3756,3066 3757,3056 3758,3048 3760,3038 3761,3029 3762,3019 L 3885,3011 C 3885,3014 3884,3019 3884,3023 3884,3027 3883,3031 3883,3035 3882,3039 3882,3044 3882,3049 3882,3052 3882,3055 3882,3059 3883,3063 3883,3067 3884,3070 3885,3074 3886,3077 3889,3079 3891,3082 3894,3083 3898,3083 3901,3082 3906,3079 3911,3073 3916,3067 3922,3059 3929,3050 3937,3040 3945,3030 3954,3019 3963,3008 3974,2998 3985,2988 3997,2979 4011,2971 4025,2964 4041,2957 4057,2953 4076,2951 4095,2950 4113,2952 4130,2957 4147,2962 4162,2971 4174,2983 4187,2996 4196,3012 4204,3032 4211,3053 4215,3077 4215,3106 4215,3123 4214,3139 4212,3154 4211,3168 4209,3182 4207,3193 4205,3206 4202,3218 4199,3229 L 4067,3236 Z"/>
       </g>
      </g>
      <g class="com.sun.star.drawing.ClosedBezierShape">
       <g id="id24">
        <rect class="BoundingBox" stroke="none" fill="none" x="3763" y="2542" width="441" height="403"/>
        <path fill="rgb(255,255,255)" stroke="none" d="M 3764,2943 C 3764,2896 3764,2850 3764,2803 3814,2798 3864,2795 3913,2790 3913,2765 3913,2738 3913,2712 3864,2716 3814,2720 3764,2724 3764,2677 3764,2630 3764,2583 3910,2570 4057,2556 4203,2542 4203,2590 4203,2639 4203,2687 4149,2692 4095,2696 4041,2701 4041,2727 4041,2754 4041,2780 4095,2776 4149,2772 4203,2767 4203,2816 4203,2864 4203,2912 L 3764,2943 Z"/>
       </g>
      </g>
     </g>
     <g class="Group">
      <g class="com.sun.star.drawing.ClosedBezierShape">
       <g id="id25">
        <rect class="BoundingBox" stroke="none" fill="none" x="3927" y="2038" width="269" height="286"/>
        <path fill="rgb(255,255,255)" stroke="none" d="M 3928,2227 C 3967,2205 4005,2184 4042,2162 4004,2153 3966,2143 3928,2134 3928,2102 3928,2070 3928,2038 4013,2061 4101,2082 4189,2103 4191,2126 4193,2149 4195,2172 4108,2221 4019,2272 3928,2322 L 3928,2227 Z"/>
       </g>
      </g>
      <g class="com.sun.star.drawing.ClosedBezierShape">
       <g id="id26">
        <rect class="BoundingBox" stroke="none" fill="none" x="3927" y="1894" width="254" height="155"/>
        <path fill="rgb(255,255,255)" stroke="none" d="M 4026,2005 C 4013,2019 4000,2033 3987,2048 3967,2031 3947,2014 3928,1997 3928,1975 3928,1954 3928,1931 4010,1919 4092,1907 4173,1895 4176,1924 4178,1954 4180,1982 L 4026,2005 Z"/>
       </g>
      </g>
      <g class="com.sun.star.drawing.ClosedBezierShape">
       <g id="id27">
        <rect class="BoundingBox" stroke="none" fill="none" x="3921" y="1669" width="250" height="226"/>
        <path fill="rgb(255,255,255)" stroke="none" d="M 4041,1671 C 4079,1666 4110,1671 4132,1688 4154,1704 4166,1730 4169,1764 4172,1798 4163,1826 4143,1848 4122,1871 4091,1884 4050,1891 4008,1896 3976,1892 3954,1875 3932,1859 3922,1834 3922,1799 3922,1764 3932,1736 3952,1713 3973,1691 4002,1677 4041,1671 Z M 4044,1755 C 4007,1760 3989,1772 3989,1789 3990,1807 4009,1813 4046,1807 4084,1802 4101,1791 4100,1773 4099,1756 4081,1750 4044,1755 Z"/>
       </g>
      </g>
     </g>
     <g class="Group">
      <g class="com.sun.star.drawing.ClosedBezierShape">
       <g id="id28">
        <rect class="BoundingBox" stroke="none" fill="none" x="3612" y="5808" width="599" height="464"/>
        <path fill="rgb(255,255,255)" stroke="none" d="M 3613,6115 L 3625,5938 C 3626,5915 3631,5895 3639,5877 3647,5860 3658,5845 3672,5835 3686,5823 3703,5816 3722,5811 3742,5807 3765,5807 3791,5812 3809,5815 3825,5820 3837,5826 3850,5832 3861,5838 3869,5844 3880,5851 3888,5859 3894,5867 3903,5858 3914,5850 3927,5844 3938,5838 3952,5834 3969,5830 3985,5827 4006,5827 4030,5831 4058,5836 4082,5845 4104,5857 4127,5870 4146,5886 4161,5905 4177,5925 4189,5947 4198,5973 4206,5999 4210,6026 4210,6055 L 4210,6270 3613,6115 Z M 4072,6058 C 4073,6019 4056,5996 4022,5989 3989,5982 3971,5998 3970,6036 L 3970,6054 4072,6076 4072,6058 Z M 3804,5963 C 3777,5957 3763,5966 3762,5990 L 3761,6006 3842,6025 3843,6007 C 3843,5983 3831,5968 3804,5963 Z"/>
       </g>
      </g>
      <g class="com.sun.star.drawing.ClosedBezierShape">
       <g id="id29">
        <rect class="BoundingBox" stroke="none" fill="none" x="3648" y="5348" width="564" height="528"/>
        <path fill="rgb(255,255,255)" stroke="none" d="M 3648,5601 C 3651,5564 3653,5527 3656,5490 3843,5449 4028,5402 4210,5349 4210,5404 4210,5459 4210,5515 4194,5519 4177,5523 4161,5527 4160,5580 4160,5632 4160,5685 4176,5693 4193,5701 4210,5709 4210,5764 4210,5820 4210,5875 L 3648,5601 Z M 4038,5557 C 4005,5565 3972,5572 3939,5580 3971,5595 4004,5610 4036,5626 L 4038,5557 Z"/>
       </g>
      </g>
      <g class="com.sun.star.drawing.ClosedBezierShape">
       <g id="id30">
        <rect class="BoundingBox" stroke="none" fill="none" x="3663" y="5055" width="549" height="338"/>
        <path fill="rgb(255,255,255)" stroke="none" d="M 3811,5304 C 3810,5333 3808,5363 3807,5392 3758,5388 3711,5385 3663,5381 3671,5273 3678,5164 3685,5056 3731,5056 3777,5056 3823,5056 3822,5086 3820,5115 3819,5145 3949,5148 4080,5150 4210,5153 4210,5211 4210,5269 4210,5327 L 3811,5304 Z"/>
       </g>
      </g>
      <g class="com.sun.star.drawing.ClosedBezierShape">
       <g id="id31">
        <rect class="BoundingBox" stroke="none" fill="none" x="3687" y="4713" width="525" height="323"/>
        <path fill="rgb(255,255,255)" stroke="none" d="M 3828,4951 C 3827,4979 3826,5007 3824,5035 3778,5035 3733,5035 3687,5035 3694,4928 3702,4821 3709,4714 3753,4714 3797,4714 3841,4714 3839,4742 3838,4770 3836,4799 3961,4799 4086,4799 4210,4799 4210,4850 4210,4900 4210,4951 L 3828,4951 Z"/>
       </g>
      </g>
      <g class="com.sun.star.drawing.ClosedBezierShape">
       <g id="id32">
        <rect class="BoundingBox" stroke="none" fill="none" x="3711" y="4409" width="501" height="282"/>
        <path fill="rgb(255,255,255)" stroke="none" d="M 3711,4689 C 3714,4638 3718,4587 3721,4536 3842,4536 3962,4536 4082,4536 4083,4494 4084,4452 4084,4409 4126,4409 4168,4409 4210,4409 4210,4503 4210,4596 4210,4689 L 3711,4689 Z"/>
       </g>
      </g>
      <g class="com.sun.star.drawing.ClosedBezierShape">
       <g id="id33">
        <rect class="BoundingBox" stroke="none" fill="none" x="3732" y="4109" width="481" height="278"/>
        <path fill="rgb(255,255,255)" stroke="none" d="M 3732,4385 C 3738,4295 3744,4204 3751,4114 3791,4114 3831,4114 3871,4114 3869,4155 3867,4197 3865,4238 3882,4238 3900,4238 3917,4238 3919,4198 3920,4157 3922,4116 3960,4116 3999,4116 4037,4116 4036,4157 4035,4198 4034,4238 4052,4238 4070,4238 4088,4238 4089,4195 4089,4152 4090,4109 4130,4109 4171,4109 4211,4109 4210,4201 4210,4293 4210,4385 L 3732,4385 Z"/>
       </g>
      </g>
     </g>
     <g class="Group">
      <g class="com.sun.star.drawing.ClosedBezierShape">
       <g id="id34">
        <rect class="BoundingBox" stroke="none" fill="none" x="1054" y="5789" width="692" height="616"/>
        <path fill="rgb(255,255,255)" stroke="none" d="M 1054,6116 C 1154,6134 1254,6149 1354,6163 1254,6092 1154,6022 1054,5955 1054,5900 1054,5844 1054,5790 1284,5933 1514,6087 1744,6251 1744,6302 1744,6353 1744,6404 1514,6373 1284,6332 1054,6282 L 1054,6116 Z"/>
       </g>
      </g>
      <g class="com.sun.star.drawing.ClosedBezierShape">
       <g id="id35">
        <rect class="BoundingBox" stroke="none" fill="none" x="1054" y="5618" width="692" height="392"/>
        <path fill="rgb(255,255,255)" stroke="none" d="M 1054,5779 C 1054,5725 1054,5672 1054,5618 1284,5682 1514,5745 1744,5808 1744,5875 1744,5942 1744,6008 L 1054,5779 Z"/>
       </g>
      </g>
      <g class="com.sun.star.drawing.ClosedBezierShape">
       <g id="id36">
        <rect class="BoundingBox" stroke="none" fill="none" x="1054" y="5289" width="692" height="459"/>
        <path fill="rgb(255,255,255)" stroke="none" d="M 1054,5569 C 1054,5476 1054,5383 1054,5290 1114,5300 1174,5310 1235,5319 1235,5365 1235,5409 1235,5454 1260,5460 1286,5465 1311,5470 1311,5425 1311,5379 1311,5333 1368,5342 1426,5352 1483,5361 1483,5409 1483,5458 1483,5505 1510,5511 1536,5516 1563,5522 1563,5470 1563,5417 1563,5365 1624,5375 1684,5384 1744,5394 1744,5511 1744,5629 1744,5747 L 1054,5569 Z"/>
       </g>
      </g>
      <g class="com.sun.star.drawing.ClosedBezierShape">
       <g id="id37">
        <rect class="BoundingBox" stroke="none" fill="none" x="1067" y="4839" width="679" height="503"/>
        <path fill="rgb(255,255,255)" stroke="none" d="M 1068,5241 C 1074,5200 1079,5158 1085,5117 1173,5081 1262,5042 1348,5000 1267,4996 1184,4991 1103,4986 1109,4937 1116,4887 1123,4839 1330,4839 1538,4839 1745,4839 1745,4890 1745,4942 1745,4994 1661,5042 1577,5088 1491,5131 1575,5139 1659,5147 1745,5155 1745,5217 1745,5278 1745,5340 L 1068,5241 Z"/>
       </g>
      </g>
      <g class="com.sun.star.drawing.ClosedBezierShape">
       <g id="id38">
        <rect class="BoundingBox" stroke="none" fill="none" x="1123" y="4275" width="692" height="515"/>
        <path fill="rgb(255,255,255)" stroke="none" d="M 1124,4788 C 1124,4747 1124,4705 1124,4664 1206,4614 1291,4562 1377,4506 1292,4515 1208,4524 1124,4533 1124,4484 1124,4434 1124,4385 1350,4348 1580,4311 1814,4275 1807,4327 1800,4381 1792,4434 1699,4497 1609,4557 1521,4614 1604,4609 1686,4604 1770,4599 1762,4662 1753,4725 1745,4788 L 1124,4788 Z"/>
       </g>
      </g>
      <g class="com.sun.star.drawing.ClosedBezierShape">
       <g id="id39">
        <rect class="BoundingBox" stroke="none" fill="none" x="1123" y="3659" width="692" height="604"/>
        <path fill="rgb(255,255,255)" stroke="none" d="M 1124,4195 C 1124,4158 1124,4120 1124,4082 1354,3952 1584,3812 1814,3660 1814,3724 1814,3786 1814,3850 1794,3863 1773,3875 1752,3888 1752,3947 1752,4007 1752,4067 1773,4068 1794,4070 1814,4072 1814,4135 1814,4199 1814,4262 L 1124,4195 Z M 1600,3978 C 1560,4002 1519,4025 1479,4047 1519,4049 1560,4051 1600,4055 L 1600,3978 Z"/>
       </g>
      </g>
     </g>
    </g>
   </g>
  </g>
 </g>
</svg>