<?xml version="1.0" encoding="UTF-8" standalone="no"?>
<svg xmlns:dc="http://purl.org/dc/elements/1.1/" xmlns:cc="http://creativecommons.org/ns#" xmlns:rdf="http://www.w3.org/1999/02/22-rdf-syntax-ns#" xmlns:svg="http://www.w3.org/2000/svg" xmlns="http://www.w3.org/2000/svg" xmlns:sodipodi="http://sodipodi.sourceforge.net/DTD/sodipodi-0.dtd" xmlns:inkscape="http://www.inkscape.org/namespaces/inkscape" version="1.1" id="svg5125" viewBox="0 0 230.20813 66.074248" height="18.647621mm" width="64.969849mm" inkscape:version="0.91 r13725" sodipodi:docname="logo_yellow.svg" inkscape:export-filename="/home/leonardo/lavoro/trento/progetti/2015/netCommons/templates/latex-template-presentation/images-template/logos/netcommons.png" inkscape:export-xdpi="150.006" inkscape:export-ydpi="150.006">
  <sodipodi:namedview pagecolor="#ffffff" bordercolor="#666666" borderopacity="1" objecttolerance="10" gridtolerance="10" guidetolerance="10" inkscape:pageopacity="0" inkscape:pageshadow="2" inkscape:window-width="1920" inkscape:window-height="1016" id="namedview48" showgrid="false" inkscape:zoom="4.5553887" inkscape:cx="115.60735" inkscape:cy="33.037124" inkscape:window-x="0" inkscape:window-y="27" inkscape:window-maximized="1" inkscape:current-layer="g5808"/>
  <defs id="defs5127"/>
  <metadata id="metadata5130">
    <rdf:RDF>
      <cc:Work rdf:about="">
        <dc:format>image/svg+xml</dc:format>
        <dc:type rdf:resource="http://purl.org/dc/dcmitype/StillImage"/>
        <dc:title/>
      </cc:Work>
    </rdf:RDF>
  </metadata>
  <g transform="translate(-171.52505,-325.47289)" id="layer1">
    <g id="g5083" transform="matrix(1.25,0,0,-1.25,-8.9546951,602.73464)">
      <g id="g5808">
        <path d="m 212.4985,179.875 c -1.489,0 -3.082,-0.902 -3.082,-0.902 l 0,0.692 -1.573,0 0,-10.484 1.573,0 0,8.492 c 0,0 1.447,0.775 2.83,0.775 1.867,0 2.181,-1.258 2.181,-3.837 l 0,-5.43 1.552,0 0,5.452 c 0,3.605 -0.692,5.242 -3.481,5.242" style="fill:#ffc700;fill-opacity:1;fill-rule:nonzero;stroke:none" id="path230"/>
        <path d="m 220.4863,175.0098 c 0.021,2.433 1.049,3.523 2.727,3.523 1.698,0 2.537,-1.028 2.537,-3.523 l -5.264,0 z m 2.727,4.865 c -2.663,0 -4.32,-1.783 -4.32,-5.514 0,-3.357 1.09,-5.39 4.173,-5.39 1.761,0 3.879,0.335 3.879,0.335 l -0.042,1.237 c 0,0 -2.243,-0.187 -3.732,-0.187 -2.034,0 -2.664,1.488 -2.664,3.417 l 6.732,0 0.083,1.195 c 0,3.313 -1.467,4.907 -4.109,4.907" style="fill:#ffc700;fill-opacity:1;fill-rule:nonzero;stroke:none" id="path234"/>
        <path d="m 233.5283,170.376 c -1.258,0 -1.51,0.775 -1.51,2.956 l 0,4.929 3.145,0 0,1.384 -3.145,0 0,3.228 -1.573,0 0,-3.228 -1.447,0 0,-1.384 1.447,0 0,-5.474 c 0,-2.809 0.839,-3.837 2.915,-3.837 0.734,0 1.95,0.209 1.95,0.209 l -0.084,1.321 c 0,0 -1.111,-0.104 -1.698,-0.104" style="fill:#ffc700;fill-opacity:1;fill-rule:nonzero;stroke:none" id="path238"/>
        <path d="m 244.6401,182.4531 c 1.385,0 3.649,-0.355 3.649,-0.355 l 0.084,1.446 c 0,0 -2.076,0.44 -3.9,0.44 -4.194,0 -5.201,-2.746 -5.201,-7.549 0,-4.675 0.944,-7.464 5.201,-7.464 1.572,0 3.879,0.419 3.879,0.419 l -0.063,1.447 c 0,0 -2.39,-0.335 -3.607,-0.335 -3.229,0 -3.753,2.117 -3.753,5.933 0,3.901 0.545,6.018 3.711,6.018" style="fill:#ffc700;fill-opacity:1;fill-rule:nonzero;stroke:none" id="path242"/>
        <path d="m 254.8521,170.334 c -2.349,0 -2.789,1.51 -2.789,4.235 0,2.663 0.65,3.921 2.789,3.921 2.013,0 2.747,-1.383 2.747,-3.963 0,-2.557 -0.399,-4.193 -2.747,-4.193 m 0,9.54 c -3.313,0 -4.404,-1.908 -4.404,-5.305 0,-3.627 0.965,-5.598 4.404,-5.598 3.417,0 4.361,2.139 4.361,5.556 0,3.376 -1.195,5.347 -4.361,5.347" style="fill:#ffc700;fill-opacity:1;fill-rule:nonzero;stroke:none" id="path246"/>
        <path d="m 273.2612,179.875 c -1.447,0 -3.711,-1.027 -3.711,-1.027 -0.588,0.629 -1.279,1.027 -2.622,1.027 -1.279,0 -2.872,-0.923 -2.872,-0.923 l 0,0.713 -1.573,0 0,-10.484 1.573,0 0,8.47 c 0,0 1.363,0.797 2.642,0.797 1.74,0 2.223,-1.174 2.223,-3.857 l 0,-5.41 1.551,0 0,5.452 c 0,1.384 -0.126,2.515 -0.314,2.998 0,0 1.572,0.817 2.872,0.817 1.888,0 2.16,-1.216 2.16,-3.879 l 0,-5.388 1.573,0 0,5.452 c 0,3.669 -0.734,5.242 -3.502,5.242" style="fill:#ffc700;fill-opacity:1;fill-rule:nonzero;stroke:none" id="path250"/>
        <path d="m 291.3765,179.875 c -1.447,0 -3.711,-1.027 -3.711,-1.027 -0.588,0.629 -1.279,1.027 -2.622,1.027 -1.279,0 -2.872,-0.923 -2.872,-0.923 l 0,0.713 -1.573,0 0,-10.484 1.573,0 0,8.47 c 0,0 1.363,0.797 2.642,0.797 1.74,0 2.223,-1.174 2.223,-3.857 l 0,-5.41 1.551,0 0,5.452 c 0,1.384 -0.126,2.515 -0.314,2.998 0,0 1.572,0.817 2.872,0.817 1.888,0 2.16,-1.216 2.16,-3.879 l 0,-5.388 1.573,0 0,5.452 c 0,3.669 -0.734,5.242 -3.502,5.242" style="fill:#ffc700;fill-opacity:1;fill-rule:nonzero;stroke:none" id="path254"/>
        <path d="m 302.1533,170.334 c -2.349,0 -2.789,1.51 -2.789,4.235 0,2.663 0.65,3.921 2.789,3.921 2.013,0 2.747,-1.383 2.747,-3.963 0,-2.557 -0.399,-4.193 -2.747,-4.193 m 0,9.54 c -3.313,0 -4.404,-1.908 -4.404,-5.305 0,-3.627 0.965,-5.598 4.404,-5.598 3.417,0 4.361,2.139 4.361,5.556 0,3.376 -1.195,5.347 -4.361,5.347" style="fill:#ffc700;fill-opacity:1;fill-rule:nonzero;stroke:none" id="path258"/>
        <path d="m 314.314,179.875 c -1.489,0 -3.082,-0.902 -3.082,-0.902 l 0,0.692 -1.573,0 0,-10.484 1.573,0 0,8.492 c 0,0 1.447,0.775 2.83,0.775 1.867,0 2.181,-1.258 2.181,-3.837 l 0,-5.43 1.552,0 0,5.452 c 0,3.605 -0.692,5.242 -3.481,5.242" style="fill:#ffc700;fill-opacity:1;fill-rule:nonzero;stroke:none" id="path262"/>
        <path d="m 324.8813,175.2617 c -1.992,0.335 -2.453,0.691 -2.453,1.614 0,1.197 0.943,1.615 2.16,1.615 1.258,0 3.564,-0.335 3.564,-0.335 l 0.042,1.321 c 0,0 -2.118,0.397 -3.69,0.397 -1.825,0 -3.67,-0.797 -3.67,-3.06 0,-1.992 1.216,-2.537 3.586,-2.957 2.055,-0.357 2.537,-0.609 2.537,-1.677 0,-1.427 -0.86,-1.825 -2.537,-1.825 -1.07,0 -3.397,0.336 -3.397,0.336 l -0.084,-1.322 c 0,0 2.285,-0.398 3.628,-0.398 2.39,0 3.983,0.817 3.983,3.27 0,2.014 -0.985,2.581 -3.669,3.021" style="fill:#ffc700;fill-opacity:1;fill-rule:nonzero;stroke:none" id="path266"/>
        <path d="m 158.7588,180.3965 -6.214,-4.752 4.044,-5.125 2.17,9.877 z" style="fill:#ffc700;fill-opacity:1;fill-rule:nonzero;stroke:none" id="path310"/>
        <path d="m 144.3838,171.8398 5.842,3.549 -3.775,0.418 -2.067,-3.967 z" style="fill:#ffc700;fill-opacity:1;fill-rule:nonzero;stroke:none" id="path314"/>
        <path d="m 186.688,205.2246 -9.529,-6.502 10.607,-3.368 -1.078,9.87 z" style="fill:#ffc700;fill-opacity:1;fill-rule:nonzero;stroke:none" id="path318"/>
        <path d="m 151.6836,175.0518 -6.974,-4.236 11.003,-0.869 -4.029,5.105 z" style="fill:#ffc700;fill-opacity:1;fill-rule:nonzero;stroke:none" id="path322"/>
        <path d="m 165.3745,188.4883 14.21,-4.151 -4.198,13.402 -10.012,-9.251 z" style="fill:#ffc700;fill-opacity:1;fill-rule:nonzero;stroke:none" id="path326"/>
        <path d="m 180.562,184.7119 6.963,9.625 -11.082,3.52 4.119,-13.145 z" style="fill:#ffc700;fill-opacity:1;fill-rule:nonzero;stroke:none" id="path330"/>
        <path d="m 176.2974,199.3984 9.959,6.796 -10.635,9.154 0.676,-15.95 z" style="fill:#ffc700;fill-opacity:1;fill-rule:nonzero;stroke:none" id="path334"/>
        <path d="m 219.0015,197.3447 -0.292,-5.505 5.41,3.352 -5.118,2.153 z" style="fill:#ffc700;fill-opacity:1;fill-rule:nonzero;stroke:none" id="path338"/>
        <path d="m 219.5649,203.7373 -5.615,-1.243 4.271,-3.684 1.344,4.927 z" style="fill:#ffc700;fill-opacity:1;fill-rule:nonzero;stroke:none" id="path342"/>
        <path d="m 212.9687,192.5049 4.793,5.324 -4.302,3.709 -0.491,-9.033 z" style="fill:#ffc700;fill-opacity:1;fill-rule:nonzero;stroke:none" id="path346"/>
        <path d="m 217.9077,196.4316 -4.536,-5.04 4.269,0 0.267,5.04 z" style="fill:#ffc700;fill-opacity:1;fill-rule:nonzero;stroke:none" id="path350"/>
        <path d="m 163.9194,186.7998 -3.673,-5.084 3.477,-3.811 0.196,8.895 z" style="fill:#ffc700;fill-opacity:1;fill-rule:nonzero;stroke:none" id="path354"/>
        <path d="m 225.9233,199.3662 -5.648,-1.424 4.664,-1.963 0.984,3.387 z" style="fill:#ffc700;fill-opacity:1;fill-rule:nonzero;stroke:none" id="path358"/>
        <path d="m 220.6084,203.5996 -1.316,-4.829 6.182,1.558 -4.866,3.271 z" style="fill:#ffc700;fill-opacity:1;fill-rule:nonzero;stroke:none" id="path362"/>
        <path d="m 233.7954,197.3809 -6.766,2.05 -1.016,-3.494 7.782,1.444 z" style="fill:#ffc700;fill-opacity:1;fill-rule:nonzero;stroke:none" id="path366"/>
        <path d="m 188.3066,193.6377 -7.061,-9.761 14.341,-3.695 -7.28,13.456 z" style="fill:#ffc700;fill-opacity:1;fill-rule:nonzero;stroke:none" id="path370"/>
        <path d="m 180.7793,182.9199 -2.099,-10.518 16.484,6.812 -14.385,3.706 z" style="fill:#ffc700;fill-opacity:1;fill-rule:nonzero;stroke:none" id="path374"/>
        <path d="m 179.77,183.1963 -13.945,4.074 11.859,-14.536 2.086,10.462 z" style="fill:#ffc700;fill-opacity:1;fill-rule:nonzero;stroke:none" id="path378"/>
        <path d="m 164.9619,186.6777 -0.215,-9.724 11.56,-4.185 -11.345,13.909 z" style="fill:#ffc700;fill-opacity:1;fill-rule:nonzero;stroke:none" id="path382"/>
        <path d="m 212.4204,201.6426 -6.126,-5.177 5.592,-4.656 0.534,9.833 z" style="fill:#ffc700;fill-opacity:1;fill-rule:nonzero;stroke:none" id="path386"/>
        <path d="m 205.6421,195.6504 -7.954,-15.001 13.67,10.242 -5.716,4.759 z" style="fill:#ffc700;fill-opacity:1;fill-rule:nonzero;stroke:none" id="path390"/>
        <path d="m 204.5601,195.8389 -15.359,-1.659 7.313,-13.518 8.046,15.177 z" style="fill:#ffc700;fill-opacity:1;fill-rule:nonzero;stroke:none" id="path394"/>
        <path d="m 163.3169,204.1572 2.221,6.961 -14.097,7.903 11.876,-14.864 z" style="fill:#ffc700;fill-opacity:1;fill-rule:nonzero;stroke:none" id="path398"/>
        <path d="m 166.4307,212.1064 7.644,4.207 -11.341,5.08 3.697,-9.287 z" style="fill:#ffc700;fill-opacity:1;fill-rule:nonzero;stroke:none" id="path402"/>
        <path d="m 164.3486,175.9883 -6.061,-5.982 17.512,1.837 -11.451,4.145 z" style="fill:#ffc700;fill-opacity:1;fill-rule:nonzero;stroke:none" id="path406"/>
        <path d="m 164.2046,203.5049 10.269,-4.027 -8.119,10.767 -2.15,-6.74 z" style="fill:#ffc700;fill-opacity:1;fill-rule:nonzero;stroke:none" id="path410"/>
        <path d="m 166.9438,211.1982 8.274,-10.973 -0.642,15.173 -7.632,-4.2 z" style="fill:#ffc700;fill-opacity:1;fill-rule:nonzero;stroke:none" id="path414"/>
        <path d="m 151.563,220.1504 13.572,-7.61 -3.691,9.269 -9.881,-1.659 z" style="fill:#ffc700;fill-opacity:1;fill-rule:nonzero;stroke:none" id="path418"/>
        <path d="m 159.8682,180.5811 -2.119,-9.641 5.744,5.669 -3.625,3.972 z" style="fill:#ffc700;fill-opacity:1;fill-rule:nonzero;stroke:none" id="path422"/>
        <path d="m 174.5044,198.3447 -10.583,4.149 0.812,-13.176 9.771,9.027 z" style="fill:#ffc700;fill-opacity:1;fill-rule:nonzero;stroke:none" id="path426"/>
      </g>
    </g>
  </g>
</svg>